<svg id="svg" version="1.1" xmlns="http://www.w3.org/2000/svg" xmlns:xlink="http://www.w3.org/1999/xlink" width="400" height="91.07373868046572" viewBox="0, 0, 400,91.07373868046572"><g id="svgg"><path id="path0" d="M183.250 18.613 C 182.608 18.652,182.012 18.755,181.925 18.842 C 181.838 18.929,181.407 19.000,180.967 19.000 C 180.527 19.000,180.167 19.068,180.167 19.150 C 180.167 19.233,179.717 19.353,179.167 19.417 C 178.617 19.481,178.167 19.592,178.167 19.664 C 178.167 19.736,177.829 19.846,177.417 19.908 C 177.004 19.970,176.667 20.081,176.667 20.156 C 176.667 20.230,176.367 20.339,176.000 20.397 C 175.633 20.456,175.333 20.578,175.333 20.669 C 175.333 20.759,175.146 20.833,174.917 20.833 C 174.236 20.833,174.412 21.347,175.433 22.341 C 175.947 22.841,176.488 23.381,176.637 23.542 C 176.786 23.702,177.003 23.833,177.120 23.833 C 177.238 23.833,177.333 23.896,177.333 23.973 C 177.333 24.050,177.632 24.256,177.998 24.432 C 178.364 24.607,178.664 24.806,178.665 24.875 C 178.666 24.944,178.760 25.000,178.875 25.001 C 178.990 25.002,179.300 25.115,179.564 25.253 C 179.828 25.390,180.353 25.551,180.730 25.610 C 181.108 25.669,181.461 25.785,181.515 25.868 C 181.570 25.951,182.301 26.063,183.140 26.117 C 183.980 26.172,184.667 26.280,184.667 26.358 C 184.667 26.436,185.342 26.500,186.167 26.500 C 186.992 26.500,187.667 26.436,187.667 26.357 C 187.667 26.279,188.360 26.162,189.208 26.099 C 190.056 26.035,190.775 25.912,190.806 25.825 C 190.836 25.738,190.986 25.666,191.139 25.666 C 191.292 25.665,191.618 25.560,191.864 25.431 C 192.110 25.303,192.541 25.148,192.822 25.086 C 193.103 25.024,193.333 24.917,193.333 24.847 C 193.333 24.777,193.502 24.640,193.708 24.542 C 194.357 24.235,196.500 22.354,196.500 22.092 C 196.500 22.028,196.612 21.864,196.750 21.726 C 197.283 21.193,197.070 20.515,196.333 20.397 C 195.967 20.339,195.667 20.230,195.667 20.156 C 195.667 20.081,195.329 19.970,194.917 19.908 C 194.504 19.846,194.167 19.734,194.167 19.658 C 194.167 19.582,193.642 19.468,193.000 19.405 C 192.358 19.342,191.833 19.233,191.833 19.162 C 191.833 19.091,191.515 18.998,191.125 18.955 C 190.735 18.912,190.235 18.831,190.012 18.775 C 189.465 18.639,184.701 18.524,183.250 18.613 M170.708 23.019 C 170.410 23.210,170.167 23.434,170.167 23.516 C 170.167 23.599,170.082 23.667,169.977 23.667 C 169.873 23.667,169.614 23.854,169.402 24.083 C 169.190 24.313,168.938 24.500,168.842 24.500 C 168.747 24.500,168.326 24.837,167.908 25.250 C 167.489 25.662,167.095 26.002,167.032 26.005 C 166.969 26.008,166.617 26.346,166.250 26.757 C 165.883 27.168,165.265 27.835,164.875 28.239 C 164.485 28.643,164.167 29.055,164.167 29.154 C 164.167 29.252,164.092 29.333,164.000 29.333 C 163.619 29.333,163.850 30.015,164.288 30.181 C 164.538 30.276,164.782 30.410,164.830 30.478 C 164.969 30.676,166.320 31.333,166.588 31.333 C 166.723 31.333,166.833 31.408,166.833 31.500 C 166.833 31.592,166.899 31.667,166.979 31.667 C 167.059 31.667,167.490 31.831,167.937 32.032 C 169.094 32.551,170.865 33.165,171.208 33.166 C 171.369 33.166,171.500 33.233,171.500 33.314 C 171.500 33.395,171.912 33.513,172.417 33.576 C 172.921 33.639,173.333 33.760,173.333 33.845 C 173.333 33.930,173.558 34.000,173.833 34.000 C 174.108 34.000,174.333 34.069,174.333 34.153 C 174.333 34.238,174.840 34.360,175.458 34.426 C 176.077 34.491,176.622 34.603,176.668 34.676 C 176.715 34.748,177.503 34.861,178.418 34.927 C 179.334 34.993,180.123 35.108,180.171 35.181 C 180.317 35.405,187.759 35.533,189.917 35.349 C 192.830 35.100,195.071 34.811,195.167 34.672 C 195.213 34.605,195.699 34.499,196.248 34.436 C 196.797 34.373,197.318 34.249,197.406 34.161 C 197.494 34.072,197.777 34.000,198.033 34.000 C 198.290 34.000,198.500 33.935,198.500 33.857 C 198.500 33.778,198.893 33.667,199.374 33.610 C 199.855 33.553,200.273 33.430,200.305 33.336 C 200.336 33.243,200.486 33.167,200.639 33.167 C 201.016 33.167,203.069 32.448,203.139 32.292 C 203.169 32.223,203.263 32.167,203.346 32.167 C 203.605 32.167,204.833 31.594,204.833 31.474 C 204.833 31.411,205.058 31.310,205.333 31.250 C 205.608 31.190,205.833 31.077,205.833 31.000 C 205.833 30.923,206.058 30.810,206.333 30.750 C 206.608 30.690,206.833 30.571,206.833 30.487 C 206.833 30.402,206.934 30.333,207.057 30.333 C 207.670 30.333,208.305 29.456,207.958 29.089 C 207.844 28.967,207.563 28.629,207.333 28.337 C 206.756 27.601,205.185 26.000,205.040 26.000 C 204.974 26.000,204.732 25.814,204.502 25.586 C 203.810 24.900,201.384 23.167,201.118 23.167 C 200.981 23.167,200.826 23.054,200.773 22.917 C 200.572 22.393,199.167 23.271,199.167 23.921 C 199.167 24.079,198.370 24.822,197.250 25.708 C 196.700 26.143,196.159 26.575,196.049 26.666 C 195.938 26.758,195.778 26.833,195.694 26.833 C 195.610 26.833,195.451 26.941,195.342 27.073 C 195.233 27.204,194.924 27.360,194.655 27.419 C 194.386 27.478,194.167 27.590,194.167 27.667 C 194.167 27.744,193.942 27.856,193.667 27.917 C 193.392 27.977,193.167 28.089,193.167 28.165 C 193.167 28.242,192.867 28.355,192.500 28.417 C 192.133 28.479,191.833 28.598,191.833 28.681 C 191.833 28.765,191.615 28.833,191.347 28.833 C 191.080 28.833,190.836 28.908,190.806 28.999 C 190.775 29.090,190.166 29.213,189.453 29.274 C 188.739 29.334,188.116 29.447,188.068 29.525 C 187.952 29.713,184.212 29.708,184.096 29.520 C 184.046 29.439,183.366 29.320,182.586 29.255 C 181.805 29.190,181.167 29.068,181.167 28.985 C 181.167 28.902,181.021 28.833,180.843 28.833 C 180.665 28.833,180.476 28.763,180.423 28.676 C 180.369 28.590,179.990 28.469,179.579 28.407 C 179.169 28.346,178.833 28.229,178.833 28.148 C 178.833 28.066,178.748 28.000,178.643 28.000 C 178.432 28.000,176.964 27.309,176.833 27.148 C 176.787 27.091,176.581 26.992,176.375 26.928 C 176.169 26.864,176.000 26.741,176.000 26.655 C 176.000 26.570,175.913 26.500,175.806 26.500 C 175.699 26.500,175.493 26.387,175.347 26.248 C 175.202 26.110,174.734 25.716,174.307 25.373 C 173.881 25.031,173.103 24.281,172.579 23.708 C 171.517 22.547,171.471 22.531,170.708 23.019 M161.667 32.917 C 161.667 33.054,161.592 33.167,161.500 33.167 C 161.408 33.167,161.333 33.317,161.333 33.500 C 161.333 33.683,161.258 33.833,161.167 33.833 C 161.075 33.833,160.997 33.927,160.994 34.042 C 160.991 34.156,160.844 34.550,160.667 34.917 C 160.490 35.283,160.342 35.715,160.339 35.875 C 160.336 36.035,160.263 36.167,160.177 36.167 C 160.091 36.167,159.970 36.504,159.908 36.917 C 159.846 37.329,159.734 37.667,159.660 37.667 C 159.585 37.667,159.472 38.079,159.409 38.583 C 159.346 39.087,159.229 39.500,159.147 39.500 C 159.066 39.500,159.000 39.710,159.000 39.967 C 159.000 40.223,158.921 40.513,158.823 40.610 C 158.724 40.709,158.633 41.615,158.615 42.685 L 158.583 44.583 185.833 44.629 C 200.821 44.654,213.250 44.634,213.453 44.585 C 213.840 44.492,213.861 42.009,213.479 41.592 C 213.399 41.505,213.333 41.148,213.333 40.800 C 213.333 40.452,213.268 40.167,213.188 40.167 C 213.108 40.167,212.994 39.795,212.933 39.340 C 212.873 38.886,212.755 38.471,212.671 38.420 C 212.588 38.368,212.469 37.990,212.407 37.579 C 212.346 37.169,212.229 36.833,212.148 36.833 C 212.066 36.833,212.000 36.702,212.001 36.542 C 212.003 35.858,210.232 32.667,209.851 32.667 C 209.567 32.667,208.500 33.218,208.500 33.364 C 208.500 33.439,208.418 33.500,208.317 33.500 C 208.092 33.500,206.948 34.023,206.833 34.179 C 206.787 34.241,206.506 34.344,206.208 34.409 C 205.910 34.474,205.667 34.589,205.667 34.665 C 205.667 34.742,205.367 34.855,205.000 34.917 C 204.633 34.979,204.333 35.097,204.333 35.179 C 204.333 35.262,204.033 35.377,203.667 35.436 C 203.300 35.495,203.000 35.608,203.000 35.688 C 203.000 35.768,202.831 35.834,202.625 35.834 C 202.419 35.835,202.035 35.947,201.773 36.084 C 201.510 36.221,201.158 36.333,200.991 36.333 C 200.823 36.333,200.641 36.406,200.586 36.495 C 200.531 36.584,200.114 36.706,199.660 36.767 C 199.205 36.827,198.833 36.934,198.833 37.005 C 198.833 37.076,198.383 37.186,197.833 37.250 C 197.283 37.314,196.833 37.426,196.833 37.499 C 196.833 37.573,196.293 37.687,195.632 37.754 C 194.971 37.820,194.315 37.939,194.173 38.018 C 192.947 38.705,177.833 38.685,177.833 37.996 C 177.833 37.928,177.271 37.820,176.584 37.755 C 175.898 37.691,175.299 37.579,175.253 37.505 C 175.208 37.432,174.739 37.318,174.211 37.253 C 173.682 37.187,173.213 37.082,173.167 37.019 C 173.093 36.918,172.189 36.679,170.792 36.390 C 170.540 36.338,170.333 36.236,170.333 36.162 C 170.333 36.089,170.015 35.976,169.625 35.910 C 169.235 35.845,168.769 35.688,168.588 35.562 C 168.407 35.436,168.088 35.333,167.880 35.333 C 167.671 35.333,167.500 35.265,167.500 35.181 C 167.500 35.098,167.200 34.979,166.833 34.917 C 166.467 34.855,166.167 34.742,166.167 34.665 C 166.167 34.589,165.942 34.477,165.667 34.417 C 165.392 34.356,165.167 34.238,165.167 34.153 C 165.167 34.069,165.021 34.000,164.843 34.000 C 164.665 34.000,164.478 33.933,164.428 33.852 C 164.378 33.770,164.130 33.652,163.878 33.589 C 163.626 33.525,163.382 33.423,163.335 33.362 C 162.941 32.844,161.667 32.504,161.667 32.917 M158.500 49.156 C 158.500 49.793,158.575 50.360,158.667 50.417 C 158.758 50.473,158.833 50.813,158.833 51.171 C 158.833 51.529,158.939 52.143,159.068 52.536 C 159.198 52.929,159.354 53.568,159.416 53.957 C 159.478 54.347,159.597 54.707,159.681 54.759 C 159.765 54.811,159.833 54.973,159.833 55.121 C 159.833 55.680,161.739 59.990,162.012 60.047 C 162.051 60.055,162.346 59.962,162.667 59.840 C 162.987 59.719,163.306 59.630,163.375 59.643 C 163.444 59.656,163.500 59.600,163.500 59.518 C 163.500 59.295,168.332 57.000,168.801 57.000 C 168.889 57.000,169.177 56.888,169.439 56.751 C 169.702 56.614,170.043 56.502,170.198 56.501 C 170.354 56.500,170.524 56.429,170.577 56.343 C 170.677 56.181,172.120 55.897,172.417 55.981 C 172.508 56.007,172.526 55.971,172.457 55.901 C 172.188 55.633,177.689 54.453,179.281 54.438 C 179.573 54.435,179.775 54.373,179.729 54.300 C 179.659 54.187,181.176 54.077,181.779 54.151 C 181.887 54.165,182.022 54.099,182.081 54.004 C 182.212 53.792,189.939 53.767,190.070 53.978 C 190.119 54.058,190.664 54.134,191.280 54.148 C 191.896 54.161,192.442 54.227,192.492 54.294 C 192.542 54.362,192.733 54.416,192.917 54.415 C 193.503 54.411,195.878 54.790,197.083 55.080 C 197.725 55.234,198.644 55.437,199.125 55.530 C 199.606 55.623,199.967 55.752,199.928 55.815 C 199.889 55.879,200.016 55.943,200.211 55.958 C 201.007 56.017,203.833 57.000,203.833 57.217 C 203.833 57.292,203.905 57.309,203.993 57.254 C 204.081 57.200,204.287 57.225,204.452 57.309 C 204.616 57.394,205.068 57.603,205.456 57.773 C 205.845 57.944,206.164 58.124,206.165 58.173 C 206.166 58.222,206.332 58.275,206.534 58.290 C 206.999 58.325,208.832 59.280,209.132 59.643 C 209.256 59.793,209.311 59.823,209.253 59.708 C 209.108 59.423,209.303 59.446,209.607 59.750 C 209.978 60.121,210.398 59.814,210.738 58.925 C 210.897 58.508,211.096 58.167,211.180 58.167 C 211.265 58.167,211.321 58.110,211.307 58.042 C 211.292 57.973,211.342 57.767,211.417 57.583 C 211.735 56.804,212.205 55.571,212.242 55.417 C 212.265 55.325,212.339 55.100,212.407 54.917 C 212.475 54.733,212.599 54.396,212.682 54.167 C 212.824 53.775,213.070 52.716,213.282 51.583 C 213.333 51.308,213.429 51.008,213.495 50.917 C 213.607 50.761,213.683 50.034,213.730 48.667 L 213.750 48.083 186.125 48.041 L 158.500 47.999 158.500 49.156 " stroke="none" fill="#3174bc" fill-rule="evenodd"></path><path id="path1" d="M158.663 51.133 L 158.743 51.917 158.800 51.270 C 158.831 50.914,158.794 50.561,158.719 50.486 C 158.644 50.410,158.618 50.702,158.663 51.133 M176.250 54.833 C 175.929 54.971,175.930 54.977,176.282 54.988 C 176.483 54.995,176.693 54.925,176.750 54.833 C 176.872 54.636,176.709 54.636,176.250 54.833 M195.583 54.833 C 195.640 54.925,195.851 54.995,196.052 54.988 C 196.404 54.977,196.405 54.971,196.083 54.833 C 195.625 54.636,195.461 54.636,195.583 54.833 M181.083 57.439 C 180.625 57.477,180.100 57.576,179.917 57.660 C 179.733 57.744,178.927 57.861,178.125 57.921 C 177.323 57.981,176.667 58.089,176.667 58.160 C 176.667 58.232,176.208 58.342,175.648 58.406 C 175.087 58.469,174.506 58.586,174.356 58.666 C 174.079 58.813,172.955 59.124,172.125 59.283 C 171.873 59.332,171.667 59.433,171.667 59.509 C 171.667 59.584,171.329 59.697,170.917 59.759 C 170.504 59.821,170.167 59.931,170.167 60.004 C 170.167 60.077,169.867 60.188,169.500 60.250 C 169.133 60.312,168.833 60.431,168.833 60.515 C 168.833 60.598,168.740 60.667,168.625 60.668 C 168.510 60.668,168.215 60.774,167.970 60.902 C 167.724 61.030,167.292 61.186,167.011 61.248 C 166.730 61.309,166.500 61.429,166.500 61.513 C 166.500 61.598,166.387 61.667,166.250 61.667 C 166.112 61.667,166.000 61.736,166.000 61.820 C 166.000 61.904,165.775 62.023,165.500 62.083 C 165.225 62.144,165.000 62.256,165.000 62.333 C 165.000 62.410,164.775 62.523,164.500 62.583 C 163.852 62.726,163.846 63.164,164.481 63.814 C 164.745 64.084,165.073 64.464,165.208 64.658 C 165.840 65.559,168.056 67.624,169.333 68.500 C 169.534 68.637,169.852 68.881,170.041 69.042 C 170.230 69.202,170.451 69.333,170.532 69.333 C 170.614 69.333,170.842 69.483,171.038 69.667 C 171.564 70.156,172.667 69.786,172.667 69.120 C 172.667 69.060,172.913 68.765,173.214 68.464 C 173.677 68.002,174.121 67.630,175.417 66.623 C 175.508 66.552,175.746 66.360,175.946 66.197 C 176.145 66.033,176.595 65.753,176.946 65.575 C 177.296 65.396,177.621 65.211,177.667 65.164 C 177.713 65.117,178.068 64.929,178.456 64.747 C 178.845 64.566,179.164 64.367,179.165 64.306 C 179.166 64.246,179.467 64.145,179.833 64.083 C 180.200 64.021,180.500 63.909,180.500 63.834 C 180.500 63.759,180.894 63.644,181.375 63.579 C 181.856 63.513,182.304 63.375,182.369 63.271 C 182.534 63.010,189.855 63.008,190.183 63.270 C 190.311 63.373,190.717 63.511,191.083 63.577 C 191.450 63.643,191.825 63.754,191.917 63.825 C 192.008 63.896,192.308 64.006,192.583 64.070 C 193.251 64.224,194.000 64.554,194.000 64.694 C 194.000 64.756,194.225 64.856,194.500 64.917 C 194.775 64.977,195.000 65.094,195.000 65.177 C 195.000 65.259,195.188 65.374,195.417 65.432 C 195.646 65.489,195.833 65.603,195.833 65.685 C 195.833 65.766,195.934 65.833,196.058 65.833 C 196.181 65.833,196.417 65.983,196.583 66.167 C 196.749 66.350,196.945 66.500,197.018 66.500 C 197.092 66.500,197.327 66.669,197.542 66.875 C 197.757 67.081,198.248 67.507,198.633 67.821 C 199.018 68.136,199.333 68.448,199.333 68.516 C 199.333 68.583,199.625 68.952,199.982 69.334 L 200.630 70.029 201.357 69.557 C 201.756 69.297,202.188 68.985,202.315 68.864 C 202.442 68.743,202.742 68.518,202.982 68.364 C 203.663 67.925,204.309 67.351,205.663 65.982 C 207.838 63.783,208.178 63.347,207.976 63.023 C 207.761 62.679,206.621 62.000,206.259 62.000 C 206.116 62.000,206.000 61.925,206.000 61.833 C 206.000 61.742,205.887 61.667,205.750 61.667 C 205.612 61.667,205.500 61.600,205.500 61.518 C 205.500 61.436,205.295 61.318,205.043 61.255 C 204.792 61.192,204.548 61.081,204.502 61.010 C 204.455 60.938,203.874 60.692,203.212 60.464 C 202.549 60.235,202.045 60.010,202.092 59.963 C 202.139 59.916,201.860 59.827,201.472 59.765 C 201.084 59.703,200.688 59.594,200.592 59.522 C 200.495 59.450,199.929 59.259,199.333 59.096 C 198.737 58.933,198.078 58.733,197.869 58.651 C 197.659 58.569,197.078 58.453,196.577 58.394 C 196.076 58.336,195.667 58.229,195.667 58.159 C 195.667 58.088,195.010 57.977,194.208 57.912 C 193.406 57.847,192.652 57.715,192.532 57.618 C 192.315 57.444,182.848 57.296,181.083 57.439 M184.167 66.159 C 184.029 66.252,183.658 66.329,183.342 66.331 C 182.665 66.334,180.833 66.849,180.833 67.037 C 180.833 67.108,180.697 67.167,180.530 67.167 C 180.096 67.167,177.969 68.313,177.131 69.000 C 174.958 70.779,174.376 71.847,175.470 72.048 C 175.715 72.093,176.434 72.325,177.066 72.565 C 177.698 72.804,178.377 73.000,178.574 73.000 C 178.772 73.000,179.008 73.075,179.099 73.166 C 179.190 73.257,179.749 73.380,180.341 73.439 C 180.932 73.498,181.522 73.629,181.651 73.731 C 181.986 73.997,189.975 73.986,190.516 73.719 C 190.737 73.610,191.423 73.473,192.042 73.414 C 192.660 73.355,193.167 73.246,193.167 73.172 C 193.167 73.098,193.502 72.987,193.913 72.926 C 194.323 72.864,194.703 72.743,194.756 72.657 C 194.809 72.571,195.021 72.500,195.227 72.500 C 195.432 72.500,195.690 72.410,195.800 72.300 C 195.910 72.190,196.000 72.157,196.000 72.227 C 196.000 72.297,196.300 72.186,196.667 71.980 C 197.033 71.774,197.333 71.488,197.333 71.344 C 197.332 70.967,194.724 68.506,193.948 68.150 C 193.747 68.058,193.246 67.800,192.833 67.577 C 192.421 67.353,191.992 67.169,191.880 67.168 C 191.768 67.167,191.426 67.026,191.119 66.853 C 190.102 66.282,184.770 65.750,184.167 66.159 " stroke="none" fill="#443c8b" fill-rule="evenodd"></path><path id="path2" d="M182.333 13.661 C 182.333 13.760,181.915 13.833,181.343 13.833 C 180.799 13.833,180.311 13.901,180.260 13.983 C 180.210 14.065,179.643 14.185,179.001 14.250 C 178.359 14.314,177.833 14.425,177.833 14.495 C 177.833 14.566,177.461 14.673,177.007 14.733 C 176.552 14.794,176.138 14.911,176.086 14.995 C 176.035 15.079,175.656 15.198,175.246 15.259 C 174.836 15.321,174.500 15.438,174.500 15.519 C 174.500 15.600,174.380 15.667,174.234 15.667 C 173.945 15.667,172.803 16.162,172.667 16.345 C 172.621 16.407,172.340 16.511,172.042 16.576 C 171.744 16.640,171.500 16.756,171.500 16.833 C 171.500 16.910,171.280 17.022,171.012 17.081 C 170.743 17.140,170.434 17.296,170.324 17.427 C 170.215 17.559,170.023 17.667,169.896 17.667 C 169.770 17.667,169.667 17.736,169.667 17.820 C 169.667 17.904,169.442 18.023,169.167 18.083 C 168.892 18.144,168.667 18.245,168.667 18.309 C 168.667 18.372,168.404 18.566,168.083 18.738 C 167.762 18.911,167.500 19.116,167.500 19.193 C 167.500 19.270,167.385 19.333,167.245 19.333 C 167.104 19.333,166.947 19.443,166.896 19.577 C 166.845 19.711,166.641 19.871,166.443 19.933 C 166.245 19.996,165.918 20.223,165.716 20.440 C 165.514 20.656,165.303 20.833,165.247 20.833 C 165.029 20.833,160.706 25.137,160.433 25.627 C 160.344 25.786,160.173 26.016,160.052 26.137 C 159.932 26.258,159.833 26.430,159.833 26.520 C 159.833 26.609,159.646 26.856,159.417 27.069 C 159.188 27.281,159.000 27.534,159.000 27.630 C 159.000 27.727,158.944 27.831,158.875 27.861 C 158.685 27.945,158.000 28.963,158.000 29.160 C 158.000 29.255,157.931 29.333,157.847 29.333 C 157.762 29.333,157.644 29.558,157.583 29.833 C 157.523 30.108,157.410 30.333,157.331 30.333 C 157.253 30.333,157.136 30.502,157.072 30.708 C 157.008 30.915,156.909 31.121,156.853 31.167 C 156.634 31.344,156.167 32.376,156.167 32.680 C 156.167 32.856,156.092 33.000,156.000 33.000 C 155.908 33.000,155.833 33.094,155.832 33.208 C 155.832 33.323,155.722 33.626,155.589 33.882 C 155.455 34.138,155.297 34.607,155.238 34.924 C 155.178 35.241,155.070 35.500,154.997 35.500 C 154.924 35.500,154.813 35.875,154.750 36.333 C 154.687 36.792,154.567 37.167,154.484 37.167 C 154.401 37.167,154.333 37.377,154.333 37.633 C 154.333 37.890,154.261 38.172,154.173 38.261 C 154.084 38.349,153.961 38.870,153.898 39.419 C 153.834 39.968,153.700 40.470,153.600 40.536 C 153.340 40.704,153.343 51.798,153.603 51.964 C 153.705 52.030,153.842 52.589,153.908 53.207 C 153.973 53.824,154.095 54.373,154.180 54.425 C 154.264 54.477,154.333 54.740,154.333 55.010 C 154.333 55.279,154.404 55.500,154.490 55.500 C 154.576 55.500,154.697 55.837,154.759 56.250 C 154.821 56.663,154.929 57.000,155.000 57.000 C 155.071 57.000,155.179 57.338,155.241 57.750 C 155.303 58.163,155.424 58.500,155.510 58.500 C 155.596 58.500,155.667 58.582,155.667 58.683 C 155.667 58.854,155.768 59.109,156.475 60.706 C 156.626 61.049,156.800 61.330,156.862 61.331 C 156.923 61.332,157.022 61.553,157.081 61.822 C 157.140 62.090,157.296 62.400,157.427 62.509 C 157.559 62.618,157.667 62.811,157.667 62.937 C 157.667 63.063,157.742 63.167,157.833 63.167 C 157.925 63.167,158.000 63.274,158.000 63.405 C 158.000 63.536,158.094 63.745,158.208 63.870 C 158.458 64.143,158.793 64.656,158.947 65.000 C 159.008 65.137,159.158 65.310,159.279 65.383 C 159.401 65.457,159.500 65.594,159.500 65.688 C 159.500 65.782,159.725 66.084,160.000 66.359 C 160.275 66.634,160.500 66.928,160.500 67.012 C 160.500 67.214,164.959 71.667,165.161 71.667 C 165.247 71.667,165.565 71.917,165.867 72.222 C 166.169 72.528,166.548 72.825,166.708 72.884 C 166.869 72.942,167.000 73.067,167.000 73.161 C 167.000 73.256,167.107 73.333,167.238 73.333 C 167.369 73.333,167.578 73.427,167.703 73.542 C 167.975 73.791,168.488 74.126,168.833 74.281 C 168.971 74.342,169.121 74.435,169.167 74.488 C 169.412 74.769,171.513 75.833,171.823 75.833 C 171.920 75.833,172.000 75.905,172.000 75.992 C 172.000 76.080,172.262 76.201,172.583 76.261 C 172.904 76.321,173.167 76.434,173.167 76.511 C 173.167 76.588,173.448 76.703,173.792 76.766 C 174.135 76.830,174.454 76.932,174.500 76.994 C 174.649 77.195,175.996 77.667,176.420 77.667 C 176.647 77.667,176.833 77.736,176.833 77.821 C 176.833 77.906,177.246 78.028,177.750 78.091 C 178.254 78.154,178.667 78.264,178.667 78.337 C 178.667 78.410,179.379 78.522,180.250 78.588 C 181.121 78.653,181.833 78.772,181.833 78.853 C 181.833 78.934,183.744 79.000,186.083 79.000 C 188.421 79.000,190.333 78.936,190.333 78.858 C 190.333 78.780,190.986 78.666,191.784 78.604 C 192.582 78.543,193.276 78.430,193.326 78.352 C 193.376 78.275,193.847 78.159,194.372 78.094 C 194.898 78.030,195.367 77.913,195.415 77.836 C 195.463 77.759,195.801 77.645,196.167 77.583 C 196.532 77.522,196.874 77.403,196.926 77.319 C 196.977 77.235,197.203 77.167,197.427 77.167 C 197.650 77.167,197.833 77.095,197.833 77.008 C 197.833 76.920,198.096 76.799,198.417 76.739 C 198.737 76.679,199.000 76.571,199.000 76.500 C 199.000 76.429,199.262 76.321,199.583 76.261 C 199.904 76.201,200.167 76.086,200.167 76.006 C 200.167 75.925,200.392 75.810,200.667 75.750 C 200.942 75.690,201.167 75.577,201.167 75.500 C 201.167 75.423,201.392 75.310,201.667 75.250 C 201.942 75.190,202.167 75.079,202.167 75.005 C 202.167 74.930,202.354 74.822,202.583 74.765 C 202.813 74.707,203.000 74.587,203.000 74.497 C 203.000 74.407,203.112 74.333,203.250 74.333 C 203.387 74.333,203.500 74.266,203.500 74.185 C 203.500 74.103,203.688 73.989,203.917 73.932 C 204.146 73.874,204.333 73.753,204.333 73.663 C 204.333 73.574,204.448 73.500,204.589 73.500 C 204.729 73.500,204.886 73.390,204.937 73.256 C 204.989 73.122,205.186 72.964,205.375 72.904 C 205.564 72.843,205.884 72.616,206.087 72.397 C 206.289 72.179,206.511 72.000,206.580 72.000 C 206.649 72.000,206.988 71.709,207.333 71.354 C 207.677 70.999,208.038 70.680,208.133 70.646 C 208.398 70.551,210.500 68.493,210.500 68.329 C 210.500 68.250,210.838 67.869,211.250 67.482 C 211.662 67.095,212.000 66.679,212.000 66.556 C 212.000 66.434,212.060 66.333,212.133 66.333 C 212.206 66.333,212.450 66.035,212.675 65.671 C 212.900 65.307,213.140 65.007,213.208 65.004 C 213.277 65.002,213.333 64.887,213.333 64.750 C 213.333 64.612,213.407 64.500,213.497 64.500 C 213.587 64.500,213.707 64.312,213.765 64.083 C 213.822 63.854,213.936 63.667,214.018 63.667 C 214.100 63.667,214.167 63.552,214.167 63.411 C 214.167 63.271,214.277 63.114,214.412 63.062 C 214.547 63.010,214.705 62.713,214.764 62.401 C 214.823 62.089,214.931 61.833,215.005 61.833 C 215.079 61.833,215.190 61.608,215.250 61.333 C 215.310 61.058,215.423 60.833,215.500 60.833 C 215.577 60.833,215.690 60.608,215.750 60.333 C 215.810 60.058,215.911 59.833,215.973 59.833 C 216.107 59.833,216.437 59.100,216.592 58.458 C 216.653 58.206,216.765 58.000,216.841 58.000 C 216.917 58.000,217.030 57.662,217.092 57.250 C 217.154 56.837,217.266 56.500,217.340 56.500 C 217.415 56.500,217.528 56.087,217.591 55.583 C 217.654 55.079,217.767 54.667,217.842 54.667 C 217.918 54.667,218.032 54.142,218.095 53.500 C 218.158 52.858,218.268 52.333,218.339 52.333 C 218.693 52.333,219.016 42.282,218.672 41.939 C 218.578 41.844,218.500 41.407,218.500 40.967 C 218.500 40.527,218.435 40.167,218.355 40.167 C 218.275 40.167,218.158 39.642,218.095 39.000 C 218.032 38.358,217.919 37.833,217.845 37.833 C 217.770 37.833,217.660 37.461,217.600 37.007 C 217.540 36.552,217.422 36.138,217.338 36.086 C 217.254 36.035,217.136 35.656,217.074 35.246 C 217.013 34.836,216.904 34.500,216.832 34.500 C 216.761 34.500,216.653 34.294,216.592 34.042 C 216.437 33.400,216.107 32.667,215.973 32.667 C 215.911 32.667,215.810 32.442,215.750 32.167 C 215.690 31.892,215.577 31.667,215.500 31.667 C 215.423 31.667,215.310 31.442,215.250 31.167 C 215.190 30.892,215.077 30.667,215.000 30.667 C 214.923 30.667,214.810 30.442,214.750 30.167 C 214.690 29.892,214.573 29.667,214.490 29.667 C 214.407 29.667,214.293 29.479,214.235 29.250 C 214.178 29.021,214.064 28.833,213.982 28.833 C 213.900 28.833,213.833 28.750,213.833 28.649 C 213.833 28.454,212.842 27.123,212.626 27.028 C 212.557 26.997,212.500 26.904,212.500 26.821 C 212.500 26.584,211.401 25.203,210.666 24.518 C 210.300 24.177,210.000 23.820,210.000 23.725 C 210.000 23.534,208.754 22.333,208.556 22.333 C 208.487 22.333,208.127 22.007,207.757 21.609 C 207.386 21.210,206.858 20.743,206.583 20.571 C 206.308 20.399,206.023 20.162,205.950 20.046 C 205.877 19.929,205.708 19.833,205.575 19.833 C 205.442 19.833,205.333 19.763,205.333 19.678 C 205.333 19.592,205.181 19.474,204.995 19.415 C 204.808 19.356,204.475 19.140,204.254 18.935 C 204.033 18.730,203.568 18.417,203.220 18.240 C 202.873 18.062,202.488 17.823,202.366 17.708 C 202.243 17.594,202.036 17.500,201.905 17.500 C 201.774 17.500,201.667 17.431,201.667 17.347 C 201.667 17.262,201.442 17.144,201.167 17.083 C 200.892 17.023,200.667 16.910,200.667 16.833 C 200.667 16.756,200.443 16.644,200.169 16.584 C 199.895 16.524,199.628 16.405,199.575 16.321 C 199.523 16.236,199.335 16.167,199.157 16.167 C 198.979 16.167,198.833 16.093,198.833 16.002 C 198.833 15.911,198.533 15.789,198.167 15.731 C 197.800 15.672,197.500 15.563,197.500 15.489 C 197.500 15.415,197.162 15.303,196.750 15.241 C 196.338 15.179,196.000 15.068,196.000 14.993 C 196.000 14.918,195.588 14.806,195.083 14.743 C 194.579 14.680,194.167 14.566,194.167 14.491 C 194.167 14.415,193.642 14.302,193.000 14.239 C 192.358 14.175,191.833 14.065,191.833 13.993 C 191.833 13.782,189.998 13.647,186.042 13.565 C 183.544 13.513,182.333 13.544,182.333 13.661 M189.833 15.999 C 189.879 16.063,190.517 16.165,191.250 16.226 C 191.983 16.286,192.608 16.410,192.639 16.501 C 192.669 16.592,192.909 16.667,193.171 16.667 C 193.433 16.667,193.689 16.735,193.740 16.818 C 193.792 16.901,194.209 17.020,194.667 17.083 C 195.125 17.146,195.500 17.257,195.500 17.330 C 195.500 17.403,195.838 17.513,196.250 17.575 C 196.662 17.636,197.000 17.757,197.000 17.842 C 197.000 17.927,197.300 18.044,197.667 18.103 C 198.033 18.161,198.333 18.269,198.333 18.341 C 198.333 18.414,198.558 18.523,198.833 18.583 C 199.108 18.644,199.333 18.744,199.333 18.806 C 199.333 18.868,199.715 19.106,200.182 19.334 C 201.553 20.006,201.667 20.073,201.667 20.206 C 201.667 20.276,201.774 20.333,201.905 20.333 C 202.036 20.333,202.245 20.427,202.370 20.542 C 202.634 20.784,203.144 21.119,203.496 21.283 C 203.632 21.347,203.903 21.571,204.099 21.782 C 204.295 21.994,204.521 22.169,204.602 22.171 C 204.684 22.174,204.969 22.399,205.236 22.671 C 205.503 22.944,205.789 23.167,205.870 23.167 C 206.026 23.167,209.167 26.278,209.167 26.433 C 209.167 26.483,209.260 26.621,209.375 26.739 C 210.006 27.390,210.500 28.018,210.500 28.170 C 210.500 28.266,210.612 28.387,210.750 28.440 C 210.887 28.492,211.000 28.640,211.000 28.768 C 211.000 28.896,211.070 29.000,211.155 29.000 C 211.241 29.000,211.364 29.169,211.428 29.375 C 211.492 29.581,211.591 29.787,211.647 29.833 C 211.868 30.013,212.500 30.996,212.500 31.160 C 212.500 31.255,212.575 31.333,212.667 31.333 C 212.758 31.333,212.833 31.408,212.833 31.499 C 212.833 31.768,213.402 33.000,213.526 33.000 C 213.589 33.000,213.690 33.225,213.750 33.500 C 213.810 33.775,213.928 34.000,214.011 34.000 C 214.095 34.000,214.211 34.300,214.269 34.667 C 214.328 35.033,214.438 35.333,214.514 35.333 C 214.590 35.333,214.701 35.596,214.761 35.917 C 214.821 36.237,214.929 36.500,215.000 36.500 C 215.071 36.500,215.182 36.856,215.247 37.292 C 215.311 37.727,215.423 38.158,215.495 38.250 C 215.642 38.437,215.979 40.023,216.116 41.167 C 216.165 41.579,216.286 41.967,216.384 42.029 C 216.654 42.199,216.639 50.370,216.369 50.460 C 216.247 50.501,216.167 50.851,216.167 51.337 C 216.167 51.783,216.097 52.190,216.012 52.243 C 215.926 52.295,215.805 52.751,215.742 53.255 C 215.679 53.759,215.569 54.208,215.496 54.252 C 215.424 54.297,215.313 54.709,215.250 55.167 C 215.187 55.625,215.077 56.000,215.006 56.000 C 214.934 56.000,214.828 56.300,214.769 56.667 C 214.711 57.033,214.597 57.333,214.517 57.333 C 214.436 57.333,214.321 57.596,214.261 57.917 C 214.201 58.237,214.088 58.500,214.011 58.500 C 213.934 58.500,213.821 58.762,213.761 59.083 C 213.701 59.404,213.580 59.667,213.492 59.667 C 213.405 59.667,213.333 59.779,213.333 59.917 C 213.333 60.054,213.264 60.167,213.180 60.167 C 213.096 60.167,212.977 60.392,212.917 60.667 C 212.856 60.942,212.746 61.167,212.671 61.167 C 212.597 61.167,212.489 61.354,212.432 61.583 C 212.374 61.812,212.259 62.000,212.177 62.000 C 212.094 62.000,211.978 62.219,211.920 62.486 C 211.861 62.753,211.705 63.014,211.573 63.064 C 211.441 63.115,211.333 63.237,211.333 63.336 C 211.333 63.434,211.146 63.703,210.917 63.932 C 210.688 64.161,210.497 64.439,210.493 64.549 C 210.489 64.660,210.264 64.934,209.993 65.159 C 209.722 65.384,209.500 65.633,209.500 65.714 C 209.500 65.896,205.767 69.667,205.586 69.667 C 205.514 69.667,205.293 69.835,205.094 70.042 C 204.624 70.531,203.727 71.167,203.507 71.167 C 203.411 71.167,203.333 71.225,203.333 71.295 C 203.333 71.366,203.071 71.566,202.750 71.738 C 202.429 71.911,202.167 72.116,202.167 72.193 C 202.167 72.270,202.052 72.333,201.911 72.333 C 201.771 72.333,201.613 72.446,201.560 72.583 C 201.508 72.721,201.364 72.833,201.242 72.833 C 201.120 72.833,200.509 73.095,199.885 73.416 C 199.261 73.736,198.656 73.999,198.542 73.999 C 198.427 74.000,198.333 74.075,198.333 74.167 C 198.333 74.258,198.221 74.333,198.083 74.333 C 197.946 74.333,197.833 74.399,197.833 74.479 C 197.833 74.559,197.533 74.672,197.167 74.731 C 196.800 74.789,196.500 74.903,196.500 74.983 C 196.500 75.063,196.162 75.179,195.750 75.241 C 195.338 75.303,195.000 75.416,195.000 75.491 C 195.000 75.566,194.569 75.682,194.042 75.747 C 193.515 75.812,193.005 75.930,192.909 76.008 C 192.814 76.086,192.214 76.203,191.576 76.267 C 190.938 76.331,190.366 76.461,190.304 76.556 C 190.144 76.802,182.276 76.798,181.975 76.551 C 181.851 76.450,181.169 76.313,180.458 76.247 C 179.748 76.181,179.167 76.070,179.167 76.000 C 179.167 75.929,178.754 75.820,178.250 75.757 C 177.746 75.694,177.333 75.582,177.333 75.507 C 177.333 75.432,176.996 75.321,176.583 75.259 C 176.171 75.197,175.833 75.085,175.833 75.011 C 175.833 74.937,175.533 74.828,175.167 74.769 C 174.800 74.711,174.500 74.589,174.500 74.498 C 174.500 74.407,174.313 74.333,174.083 74.333 C 173.854 74.333,173.667 74.264,173.667 74.180 C 173.667 74.096,173.442 73.977,173.167 73.917 C 172.892 73.856,172.667 73.744,172.667 73.667 C 172.667 73.590,172.442 73.477,172.167 73.417 C 171.892 73.356,171.667 73.246,171.667 73.171 C 171.667 73.097,171.479 72.989,171.250 72.932 C 171.021 72.874,170.833 72.759,170.833 72.677 C 170.833 72.594,170.608 72.477,170.333 72.417 C 170.058 72.356,169.833 72.250,169.833 72.181 C 169.833 72.113,169.440 71.804,168.958 71.496 C 168.477 71.188,168.023 70.838,167.950 70.718 C 167.877 70.598,167.714 70.500,167.589 70.500 C 167.464 70.500,167.336 70.441,167.306 70.369 C 167.275 70.297,166.920 69.978,166.516 69.660 C 165.546 68.897,162.833 66.211,162.833 66.014 C 162.833 65.929,162.608 65.634,162.333 65.359 C 162.058 65.084,161.833 64.806,161.833 64.740 C 161.833 64.675,161.655 64.456,161.436 64.253 C 161.218 64.051,160.988 63.724,160.925 63.526 C 160.862 63.328,160.741 63.167,160.655 63.167 C 160.570 63.167,160.500 63.052,160.500 62.911 C 160.500 62.771,160.394 62.616,160.265 62.566 C 160.136 62.516,159.980 62.276,159.918 62.031 C 159.857 61.787,159.757 61.548,159.695 61.502 C 159.527 61.374,159.170 60.788,159.059 60.458 C 159.005 60.298,158.895 60.167,158.814 60.167 C 158.733 60.167,158.666 60.073,158.666 59.958 C 158.665 59.844,158.560 59.549,158.431 59.303 C 158.303 59.057,158.148 58.626,158.086 58.345 C 158.024 58.063,157.905 57.833,157.822 57.833 C 157.739 57.833,157.623 57.533,157.564 57.167 C 157.505 56.800,157.400 56.500,157.331 56.500 C 157.261 56.500,157.154 56.163,157.092 55.750 C 157.030 55.338,156.909 55.000,156.823 55.000 C 156.737 55.000,156.667 54.775,156.667 54.500 C 156.667 54.225,156.601 54.000,156.522 54.000 C 156.442 54.000,156.323 53.532,156.259 52.960 C 156.194 52.388,156.053 51.866,155.946 51.800 C 155.670 51.629,155.666 40.874,155.941 40.702 C 156.047 40.637,156.187 40.152,156.252 39.625 C 156.318 39.098,156.438 38.667,156.519 38.667 C 156.600 38.667,156.667 38.446,156.667 38.177 C 156.667 37.907,156.737 37.643,156.824 37.589 C 156.910 37.536,157.031 37.156,157.093 36.746 C 157.154 36.336,157.271 36.000,157.352 36.000 C 157.434 36.000,157.503 35.869,157.506 35.708 C 157.509 35.548,157.656 35.117,157.833 34.750 C 158.010 34.383,158.158 33.952,158.161 33.792 C 158.164 33.631,158.236 33.500,158.320 33.500 C 158.404 33.500,158.523 33.275,158.583 33.000 C 158.644 32.725,158.754 32.500,158.829 32.500 C 158.903 32.500,159.011 32.313,159.068 32.083 C 159.126 31.854,159.247 31.667,159.337 31.667 C 159.426 31.667,159.500 31.554,159.500 31.417 C 159.500 31.279,159.575 31.167,159.667 31.167 C 159.758 31.167,159.833 31.060,159.833 30.929 C 159.833 30.798,159.936 30.588,160.061 30.462 C 160.187 30.337,160.346 30.057,160.414 29.841 C 160.483 29.625,160.718 29.282,160.936 29.080 C 161.155 28.877,161.333 28.638,161.333 28.547 C 161.333 28.456,161.502 28.192,161.708 27.959 C 161.915 27.726,162.365 27.219,162.708 26.832 C 163.052 26.446,163.333 26.060,163.333 25.975 C 163.333 25.804,164.683 24.505,164.864 24.502 C 164.926 24.501,165.024 24.354,165.081 24.175 C 165.137 23.997,165.337 23.802,165.525 23.742 C 165.713 23.683,166.159 23.341,166.516 22.984 C 166.874 22.626,167.231 22.333,167.309 22.333 C 167.438 22.333,167.737 22.093,168.773 21.156 C 168.970 20.979,169.251 20.833,169.398 20.833 C 169.546 20.833,169.667 20.758,169.667 20.667 C 169.667 20.575,169.782 20.500,169.922 20.500 C 170.062 20.500,170.219 20.392,170.269 20.260 C 170.320 20.128,170.580 19.972,170.847 19.914 C 171.115 19.855,171.333 19.746,171.333 19.671 C 171.333 19.597,171.521 19.489,171.750 19.432 C 171.979 19.374,172.167 19.253,172.167 19.163 C 172.167 19.074,172.279 19.000,172.417 19.000 C 172.554 19.000,172.667 18.935,172.667 18.855 C 172.667 18.775,172.967 18.661,173.333 18.603 C 173.700 18.544,174.000 18.428,174.000 18.345 C 174.000 18.261,174.230 18.143,174.511 18.081 C 174.792 18.019,175.224 17.864,175.470 17.735 C 175.715 17.607,176.043 17.502,176.198 17.501 C 176.354 17.500,176.525 17.427,176.580 17.338 C 176.635 17.249,177.052 17.127,177.507 17.067 C 177.961 17.006,178.333 16.892,178.333 16.812 C 178.333 16.732,178.543 16.667,178.800 16.667 C 179.057 16.667,179.338 16.595,179.426 16.507 C 179.514 16.420,180.204 16.296,180.959 16.233 C 181.715 16.170,182.333 16.057,182.333 15.982 C 182.333 15.710,189.639 15.726,189.833 15.999 M252.910 23.875 C 252.577 24.743,252.991 58.833,253.333 58.833 C 253.405 58.833,253.513 59.030,253.574 59.271 C 253.709 59.809,254.453 60.577,255.006 60.750 C 255.232 60.821,255.470 60.962,255.536 61.064 C 255.700 61.321,260.467 61.321,260.631 61.064 C 260.697 60.962,260.934 60.821,261.159 60.750 C 261.951 60.503,262.243 59.771,261.841 59.039 C 261.754 58.880,261.636 58.251,261.580 57.640 L 261.477 56.530 260.162 56.557 C 258.029 56.600,258.257 58.549,258.206 39.827 L 258.162 23.667 255.576 23.667 C 253.660 23.667,252.969 23.721,252.910 23.875 M33.333 26.185 C 32.921 26.274,32.340 26.390,32.042 26.442 C 31.744 26.494,31.500 26.596,31.500 26.669 C 31.500 26.742,31.125 26.854,30.667 26.917 C 30.208 26.980,29.833 27.091,29.833 27.164 C 29.833 27.237,29.571 27.345,29.250 27.406 C 28.929 27.466,28.667 27.587,28.667 27.674 C 28.667 27.762,28.588 27.833,28.491 27.833 C 28.166 27.833,26.833 28.507,26.833 28.671 C 26.833 28.760,26.721 28.833,26.583 28.833 C 26.446 28.833,26.333 28.903,26.333 28.989 C 26.333 29.074,26.165 29.198,25.958 29.263 C 25.752 29.328,25.314 29.652,24.985 29.982 C 24.656 30.313,24.248 30.663,24.079 30.761 C 23.911 30.859,23.692 31.081,23.594 31.254 C 23.497 31.427,23.135 31.839,22.792 32.169 C 22.448 32.499,22.167 32.859,22.167 32.968 C 22.167 33.077,22.093 33.167,22.003 33.167 C 21.913 33.167,21.793 33.354,21.735 33.583 C 21.678 33.813,21.572 34.000,21.500 34.000 C 21.428 34.000,21.318 34.205,21.255 34.457 C 21.192 34.708,21.090 34.952,21.028 34.998 C 20.817 35.159,20.333 36.135,20.333 36.401 C 20.333 36.547,20.263 36.667,20.177 36.667 C 20.091 36.667,19.970 37.004,19.908 37.417 C 19.846 37.829,19.734 38.167,19.658 38.167 C 19.582 38.167,19.468 38.692,19.405 39.333 C 19.342 39.975,19.225 40.500,19.145 40.500 C 19.065 40.500,19.000 42.075,19.000 44.000 C 19.000 45.925,19.066 47.500,19.147 47.500 C 19.228 47.500,19.347 47.987,19.410 48.582 C 19.474 49.176,19.587 49.701,19.661 49.746 C 19.735 49.792,19.844 50.090,19.904 50.408 C 19.964 50.726,20.122 51.195,20.255 51.451 C 20.389 51.707,20.498 52.010,20.499 52.125 C 20.500 52.240,20.575 52.333,20.667 52.333 C 20.758 52.333,20.833 52.446,20.833 52.583 C 20.833 52.721,20.902 52.833,20.987 52.833 C 21.071 52.833,21.190 53.058,21.250 53.333 C 21.310 53.608,21.424 53.833,21.502 53.833 C 21.580 53.833,21.696 53.996,21.759 54.196 C 22.024 55.030,25.523 58.500,26.099 58.500 C 26.208 58.500,26.341 58.612,26.394 58.750 C 26.446 58.887,26.598 59.000,26.731 59.000 C 26.864 59.000,26.997 59.056,27.028 59.125 C 27.115 59.322,28.107 59.833,28.401 59.833 C 28.547 59.833,28.667 59.904,28.667 59.990 C 28.667 60.076,29.004 60.197,29.417 60.259 C 29.829 60.321,30.167 60.431,30.167 60.503 C 30.167 60.576,30.560 60.689,31.042 60.755 C 31.523 60.820,31.970 60.958,32.036 61.062 C 32.202 61.325,40.796 61.327,40.964 61.064 C 41.030 60.961,41.590 60.824,42.208 60.759 C 42.827 60.694,43.333 60.581,43.333 60.509 C 43.333 60.437,43.655 60.334,44.049 60.281 C 44.443 60.227,44.987 60.067,45.257 59.926 C 45.528 59.784,45.845 59.668,45.961 59.668 C 46.175 59.667,46.848 59.332,47.000 59.151 C 47.046 59.096,47.299 58.999,47.562 58.934 C 48.535 58.696,48.500 58.998,48.500 50.929 L 48.500 43.500 45.917 43.500 L 43.333 43.500 43.333 49.516 C 43.333 55.391,43.326 55.533,43.000 55.618 C 42.817 55.666,42.667 55.765,42.667 55.838 C 42.667 55.911,42.348 56.023,41.958 56.088 C 41.569 56.152,41.145 56.290,41.016 56.394 C 40.679 56.667,34.139 56.656,33.809 56.382 C 33.676 56.272,33.252 56.131,32.867 56.069 C 32.482 56.008,32.167 55.900,32.167 55.831 C 32.167 55.761,31.904 55.655,31.583 55.594 C 31.262 55.534,31.000 55.413,31.000 55.326 C 31.000 55.238,30.848 55.167,30.661 55.167 C 30.475 55.167,30.282 55.061,30.233 54.932 C 30.183 54.802,29.960 54.651,29.738 54.595 C 29.515 54.539,29.333 54.420,29.333 54.330 C 29.333 54.240,29.263 54.167,29.176 54.167 C 28.994 54.167,27.333 52.606,27.333 52.435 C 27.333 52.371,27.179 52.154,26.991 51.952 C 26.803 51.750,26.485 51.247,26.283 50.834 C 26.082 50.421,25.867 50.045,25.805 49.998 C 25.743 49.952,25.642 49.708,25.578 49.457 C 25.515 49.205,25.404 49.000,25.331 49.000 C 25.258 49.000,25.144 48.606,25.079 48.125 C 25.013 47.644,24.875 47.196,24.771 47.131 C 24.513 46.967,24.507 40.204,24.766 40.036 C 24.867 39.970,24.999 39.542,25.060 39.083 C 25.121 38.625,25.245 38.225,25.336 38.194 C 25.426 38.164,25.500 38.056,25.500 37.954 C 25.500 37.607,26.583 35.585,26.958 35.232 C 27.165 35.037,27.333 34.791,27.333 34.684 C 27.333 34.577,27.443 34.447,27.577 34.396 C 27.711 34.345,27.865 34.163,27.919 33.993 C 27.973 33.823,28.182 33.632,28.384 33.569 C 28.585 33.505,28.907 33.285,29.099 33.080 C 29.291 32.874,29.610 32.654,29.807 32.592 C 30.005 32.529,30.167 32.414,30.167 32.335 C 30.167 32.257,30.392 32.144,30.667 32.083 C 30.942 32.023,31.167 31.904,31.167 31.820 C 31.167 31.736,31.279 31.667,31.417 31.667 C 31.554 31.667,31.667 31.601,31.667 31.521 C 31.667 31.441,31.983 31.325,32.370 31.263 C 32.757 31.202,33.116 31.082,33.168 30.998 C 33.220 30.914,33.993 30.794,34.887 30.731 C 35.780 30.668,36.551 30.553,36.599 30.475 C 36.713 30.290,38.500 30.290,38.500 30.475 C 38.500 30.553,39.150 30.663,39.945 30.719 C 40.739 30.775,41.433 30.890,41.486 30.974 C 41.540 31.058,41.977 31.180,42.458 31.245 C 42.940 31.311,43.333 31.433,43.333 31.516 C 43.333 31.599,43.521 31.667,43.750 31.667 C 43.979 31.667,44.167 31.742,44.167 31.833 C 44.167 31.925,44.260 32.000,44.375 32.001 C 44.490 32.002,44.785 32.107,45.030 32.235 C 45.276 32.364,45.708 32.519,45.989 32.581 C 46.270 32.643,46.500 32.762,46.500 32.847 C 46.500 32.931,46.650 33.000,46.833 33.000 C 47.141 33.000,47.167 32.889,47.167 31.583 C 47.167 30.750,47.235 30.167,47.333 30.167 C 47.428 30.167,47.500 29.680,47.500 29.041 C 47.500 27.791,47.331 27.614,45.929 27.386 C 45.601 27.333,45.333 27.227,45.333 27.151 C 45.333 27.074,44.957 26.962,44.496 26.900 C 44.036 26.839,43.619 26.724,43.570 26.645 C 43.521 26.565,43.275 26.500,43.023 26.500 C 42.772 26.500,42.474 26.407,42.361 26.294 C 42.102 26.035,34.457 25.943,33.333 26.185 M228.667 43.500 L 228.667 60.833 231.250 60.833 L 233.833 60.833 233.833 54.667 L 233.833 48.500 236.500 48.500 C 237.967 48.500,239.167 48.435,239.167 48.357 C 239.167 48.278,239.584 48.170,240.095 48.118 C 240.605 48.065,241.112 47.950,241.220 47.863 C 241.328 47.776,241.660 47.653,241.958 47.589 C 242.256 47.526,242.500 47.413,242.500 47.338 C 242.500 47.264,242.670 47.160,242.878 47.108 C 243.086 47.056,243.421 46.860,243.621 46.673 C 243.822 46.486,244.057 46.333,244.145 46.333 C 244.410 46.333,246.667 44.025,246.667 43.753 C 246.667 43.614,246.736 43.500,246.820 43.500 C 246.904 43.500,247.023 43.275,247.083 43.000 C 247.144 42.725,247.256 42.500,247.333 42.500 C 247.410 42.500,247.523 42.275,247.583 42.000 C 247.644 41.725,247.762 41.500,247.847 41.500 C 247.931 41.500,248.000 41.290,248.000 41.033 C 248.000 40.777,248.094 40.473,248.208 40.358 C 248.360 40.206,248.417 39.298,248.417 37.000 C 248.417 34.702,248.360 33.794,248.208 33.642 C 248.094 33.527,248.000 33.261,248.000 33.050 C 248.000 32.839,247.931 32.667,247.847 32.667 C 247.762 32.667,247.644 32.442,247.583 32.167 C 247.523 31.892,247.413 31.667,247.338 31.667 C 247.264 31.667,247.154 31.473,247.095 31.236 C 246.888 30.411,244.723 28.199,243.851 27.922 C 243.658 27.861,243.500 27.744,243.500 27.663 C 243.500 27.582,243.237 27.466,242.917 27.406 C 242.596 27.345,242.333 27.233,242.333 27.156 C 242.333 27.078,242.052 26.970,241.708 26.915 C 241.365 26.860,240.953 26.744,240.794 26.658 C 240.635 26.571,240.283 26.500,240.012 26.500 C 239.741 26.500,239.473 26.425,239.417 26.333 C 239.351 26.228,237.359 26.167,233.990 26.167 L 228.667 26.167 228.667 43.500 M347.667 28.984 C 347.667 29.067,347.292 29.187,346.833 29.250 C 346.375 29.313,346.000 29.423,346.000 29.494 C 346.000 29.565,345.625 29.673,345.167 29.734 C 344.708 29.795,344.333 29.917,344.333 30.006 C 344.333 30.094,344.189 30.167,344.014 30.167 C 343.173 30.167,343.167 30.189,343.167 33.096 L 343.167 35.823 341.125 35.870 L 339.083 35.917 339.083 37.917 L 339.083 39.917 341.125 39.963 L 343.167 40.010 343.167 48.505 C 343.167 53.232,343.231 57.000,343.312 57.000 C 343.392 57.000,343.495 57.391,343.541 57.868 C 343.587 58.345,343.709 58.764,343.812 58.799 C 343.915 58.833,344.000 58.950,344.000 59.060 C 344.000 59.343,345.384 60.608,345.854 60.755 C 346.072 60.823,346.304 60.962,346.369 61.064 C 346.535 61.324,351.800 61.322,351.964 61.062 C 352.030 60.959,352.402 60.821,352.792 60.756 C 353.181 60.691,353.500 60.569,353.500 60.485 C 353.500 60.402,353.580 60.333,353.677 60.333 C 354.048 60.333,355.681 59.489,355.773 59.250 C 355.826 59.112,355.983 59.000,356.123 59.000 C 356.408 59.000,356.331 57.708,356.035 57.518 C 355.949 57.462,355.825 57.229,355.759 57.000 C 355.425 55.833,354.667 54.667,354.667 55.320 C 354.667 55.404,354.447 55.522,354.178 55.581 C 353.910 55.640,353.600 55.796,353.491 55.927 C 353.382 56.059,353.189 56.167,353.063 56.167 C 352.937 56.167,352.833 56.235,352.833 56.318 C 352.833 56.401,352.440 56.522,351.958 56.586 C 351.477 56.651,350.974 56.764,350.840 56.837 C 350.248 57.159,348.886 56.304,348.727 55.510 C 348.671 55.229,348.559 55.000,348.479 55.000 C 348.398 55.000,348.333 51.676,348.333 47.504 L 348.333 40.007 351.458 39.962 L 354.583 39.917 354.743 39.375 C 354.831 39.077,354.962 38.833,355.034 38.833 C 355.107 38.833,355.167 38.702,355.168 38.542 C 355.168 38.381,355.284 38.028,355.426 37.757 C 355.567 37.487,355.727 36.943,355.781 36.549 L 355.879 35.833 352.106 35.833 L 348.333 35.833 348.333 32.333 C 348.333 28.944,348.323 28.833,348.000 28.833 C 347.817 28.833,347.667 28.901,347.667 28.984 M238.167 30.981 C 238.167 31.062,238.504 31.179,238.917 31.241 C 239.329 31.303,239.667 31.415,239.667 31.491 C 239.667 31.566,239.798 31.672,239.958 31.726 C 240.611 31.945,242.000 33.135,242.000 33.475 C 242.000 33.580,242.056 33.667,242.125 33.667 C 242.773 33.671,243.334 39.754,242.722 40.133 C 242.614 40.199,242.476 40.456,242.414 40.703 C 242.351 40.951,242.195 41.240,242.067 41.347 C 241.938 41.454,241.833 41.612,241.833 41.700 C 241.833 41.907,240.907 42.833,240.700 42.833 C 240.612 42.833,240.451 42.941,240.342 43.073 C 240.233 43.204,239.905 43.364,239.613 43.427 C 239.322 43.490,239.032 43.622,238.970 43.720 C 238.901 43.828,237.870 43.927,236.345 43.970 L 233.833 44.041 233.833 37.437 L 233.833 30.833 236.000 30.833 C 237.192 30.833,238.167 30.900,238.167 30.981 M63.333 35.442 C 62.379 35.756,61.167 36.363,61.167 36.526 C 61.167 36.603,61.089 36.667,60.993 36.667 C 60.768 36.667,59.857 37.307,59.366 37.810 C 58.909 38.279,58.848 38.239,58.725 37.396 C 58.674 37.041,58.546 36.544,58.442 36.292 L 58.252 35.833 56.126 35.833 L 54.000 35.833 54.000 48.333 L 54.000 60.833 56.583 60.833 L 59.167 60.833 59.167 51.858 L 59.167 42.882 59.575 42.441 C 59.800 42.198,60.059 42.000,60.151 42.000 C 60.243 42.000,60.497 41.821,60.715 41.603 C 60.933 41.385,61.293 41.150,61.514 41.081 C 61.736 41.012,61.962 40.884,62.018 40.798 C 62.073 40.712,62.429 40.600,62.809 40.549 C 63.189 40.498,63.500 40.391,63.500 40.311 C 63.500 40.232,63.800 40.167,64.167 40.167 C 64.533 40.167,64.833 40.233,64.833 40.314 C 64.833 40.552,66.650 40.721,66.908 40.507 C 67.031 40.405,67.181 40.062,67.240 39.744 C 67.300 39.426,67.405 39.167,67.475 39.167 C 67.544 39.167,67.741 38.773,67.912 38.292 C 68.083 37.810,68.274 37.379,68.337 37.333 C 68.884 36.936,68.657 36.004,67.932 35.674 C 67.210 35.345,64.104 35.188,63.333 35.442 M101.208 35.447 C 100.819 35.487,100.500 35.582,100.500 35.660 C 100.500 35.737,100.050 35.853,99.500 35.917 C 98.950 35.981,98.500 36.100,98.500 36.183 C 98.500 36.266,98.379 36.333,98.231 36.333 C 98.083 36.333,97.595 36.464,97.147 36.623 L 96.332 36.912 96.374 55.081 L 96.417 73.250 98.958 73.296 L 101.500 73.342 101.500 67.088 C 101.500 60.629,101.522 60.422,102.142 61.042 C 102.422 61.322,108.288 61.341,108.464 61.062 C 108.530 60.958,108.977 60.820,109.458 60.755 C 109.940 60.689,110.333 60.573,110.333 60.498 C 110.333 60.422,110.558 60.310,110.833 60.250 C 111.108 60.190,111.333 60.079,111.333 60.005 C 111.333 59.930,111.521 59.822,111.750 59.765 C 111.979 59.707,112.167 59.587,112.167 59.497 C 112.167 59.407,112.279 59.333,112.417 59.333 C 112.554 59.333,112.667 59.263,112.667 59.178 C 112.667 59.092,112.800 58.980,112.963 58.928 C 113.346 58.807,114.877 57.347,115.271 56.728 C 115.438 56.465,115.671 56.190,115.788 56.117 C 115.904 56.043,116.000 55.875,116.000 55.742 C 116.000 55.609,116.069 55.500,116.153 55.500 C 116.238 55.500,116.356 55.275,116.417 55.000 C 116.477 54.725,116.589 54.500,116.665 54.500 C 116.742 54.500,116.855 54.200,116.917 53.833 C 116.979 53.467,117.098 53.167,117.181 53.167 C 117.265 53.167,117.333 52.985,117.333 52.764 C 117.333 52.542,117.412 52.335,117.508 52.303 C 117.605 52.271,117.728 51.552,117.783 50.706 C 117.838 49.859,117.947 49.167,118.025 49.167 C 118.210 49.167,118.210 46.880,118.025 46.766 C 117.947 46.717,117.838 46.026,117.781 45.229 C 117.725 44.431,117.601 43.701,117.506 43.606 C 117.411 43.511,117.333 43.223,117.333 42.967 C 117.333 42.710,117.264 42.500,117.180 42.500 C 117.096 42.500,116.977 42.275,116.917 42.000 C 116.856 41.725,116.744 41.500,116.667 41.500 C 116.590 41.500,116.477 41.275,116.417 41.000 C 116.356 40.725,116.238 40.500,116.153 40.500 C 116.069 40.500,116.000 40.398,116.000 40.274 C 116.000 40.150,115.831 39.864,115.625 39.638 C 115.419 39.411,115.070 38.988,114.850 38.697 C 114.630 38.405,114.381 38.167,114.296 38.167 C 114.211 38.167,113.916 37.942,113.641 37.667 C 113.366 37.392,113.041 37.167,112.918 37.167 C 112.795 37.167,112.669 37.110,112.639 37.042 C 112.543 36.827,110.778 36.005,110.167 35.890 C 109.846 35.830,109.530 35.699,109.465 35.599 C 109.345 35.416,102.705 35.293,101.208 35.447 M129.875 35.445 C 129.577 35.487,129.333 35.582,129.333 35.656 C 129.333 35.730,129.033 35.839,128.667 35.897 C 128.300 35.956,127.999 36.059,127.998 36.127 C 127.997 36.195,127.697 36.393,127.331 36.568 C 126.966 36.744,126.667 36.950,126.667 37.027 C 126.667 37.104,126.553 37.167,126.415 37.167 C 126.277 37.167,126.035 37.317,125.878 37.500 C 125.721 37.683,125.528 37.833,125.450 37.833 C 125.278 37.833,124.333 38.758,124.333 38.926 C 124.333 38.992,124.155 39.211,123.936 39.413 C 123.718 39.616,123.488 39.943,123.425 40.141 C 123.362 40.338,123.247 40.500,123.169 40.500 C 123.090 40.500,122.977 40.725,122.917 41.000 C 122.856 41.275,122.739 41.500,122.655 41.500 C 122.572 41.500,122.456 41.800,122.397 42.167 C 122.339 42.533,122.225 42.833,122.145 42.833 C 122.065 42.833,122.000 42.968,122.000 43.133 C 122.000 43.298,121.927 43.506,121.838 43.595 C 121.749 43.684,121.625 44.302,121.564 44.967 C 121.502 45.633,121.387 46.217,121.309 46.265 C 121.123 46.380,121.123 50.500,121.309 50.500 C 121.388 50.500,121.497 51.037,121.552 51.692 C 121.607 52.348,121.730 52.963,121.826 53.059 C 121.922 53.155,122.000 53.443,122.000 53.700 C 122.000 53.957,122.069 54.167,122.153 54.167 C 122.238 54.167,122.356 54.392,122.417 54.667 C 122.477 54.942,122.590 55.167,122.667 55.167 C 122.744 55.167,122.856 55.392,122.917 55.667 C 122.977 55.942,123.087 56.167,123.162 56.167 C 123.236 56.167,123.344 56.354,123.402 56.583 C 123.459 56.813,123.580 57.000,123.670 57.000 C 123.760 57.000,123.833 57.098,123.833 57.219 C 123.833 57.470,125.738 59.333,125.996 59.333 C 126.090 59.333,126.167 59.395,126.167 59.470 C 126.167 59.625,127.516 60.333,127.810 60.333 C 127.914 60.333,128.000 60.402,128.000 60.485 C 128.000 60.569,128.319 60.691,128.708 60.756 C 129.098 60.821,129.470 60.959,129.536 61.062 C 129.617 61.191,130.699 61.250,133.000 61.250 C 135.301 61.250,136.383 61.191,136.464 61.062 C 136.530 60.959,136.902 60.821,137.292 60.756 C 137.681 60.691,138.000 60.575,138.000 60.499 C 138.000 60.422,138.225 60.310,138.500 60.250 C 138.775 60.190,139.000 60.079,139.000 60.005 C 139.000 59.930,139.188 59.822,139.417 59.765 C 139.646 59.707,139.833 59.587,139.833 59.497 C 139.833 59.407,139.914 59.333,140.013 59.333 C 140.201 59.333,142.167 57.437,142.167 57.256 C 142.167 57.199,142.357 56.949,142.589 56.701 C 142.821 56.453,143.054 56.081,143.107 55.875 C 143.160 55.669,143.266 55.500,143.344 55.500 C 143.421 55.500,143.534 55.237,143.594 54.917 C 143.655 54.596,143.768 54.333,143.846 54.333 C 143.924 54.333,144.038 53.958,144.099 53.500 C 144.160 53.042,144.275 52.667,144.355 52.667 C 144.435 52.667,144.500 52.404,144.500 52.083 C 144.500 51.762,144.575 51.500,144.667 51.500 C 144.772 51.500,144.833 50.333,144.833 48.333 C 144.833 46.333,144.772 45.167,144.667 45.167 C 144.575 45.167,144.500 44.867,144.500 44.500 C 144.500 44.133,144.434 43.833,144.352 43.833 C 144.271 43.833,144.154 43.496,144.092 43.083 C 144.030 42.671,143.913 42.333,143.831 42.333 C 143.749 42.333,143.633 42.071,143.572 41.750 C 143.512 41.429,143.402 41.167,143.328 41.167 C 143.254 41.167,143.144 40.942,143.083 40.667 C 143.023 40.392,142.902 40.167,142.815 40.167 C 142.728 40.167,142.606 40.037,142.546 39.878 C 142.396 39.489,140.091 37.167,139.855 37.167 C 139.751 37.167,139.667 37.097,139.667 37.011 C 139.667 36.926,139.498 36.803,139.292 36.739 C 139.085 36.674,138.879 36.570,138.833 36.508 C 138.703 36.329,137.362 35.833,137.011 35.833 C 136.837 35.833,136.663 35.740,136.626 35.627 C 136.556 35.418,131.114 35.271,129.875 35.445 M271.875 35.446 C 271.577 35.487,271.333 35.591,271.333 35.677 C 271.333 35.763,271.138 35.833,270.900 35.833 C 270.662 35.833,270.193 35.954,269.859 36.101 C 268.611 36.651,268.082 36.922,267.866 37.125 C 267.743 37.240,267.536 37.333,267.405 37.333 C 267.274 37.333,267.167 37.400,267.167 37.482 C 267.167 37.564,266.979 37.678,266.750 37.735 C 266.343 37.837,266.108 38.667,266.487 38.667 C 266.571 38.667,266.690 38.892,266.750 39.167 C 266.810 39.442,266.921 39.667,266.995 39.667 C 267.070 39.667,267.173 39.837,267.225 40.045 C 267.278 40.253,267.458 40.572,267.627 40.753 C 267.796 40.935,267.984 41.215,268.045 41.375 C 268.181 41.733,268.558 41.751,268.893 41.417 C 269.030 41.279,269.226 41.167,269.327 41.167 C 269.428 41.167,269.553 41.056,269.605 40.921 C 269.656 40.786,269.954 40.628,270.266 40.569 C 270.578 40.511,270.833 40.403,270.833 40.329 C 270.833 40.256,271.152 40.143,271.542 40.078 C 271.931 40.012,272.299 39.882,272.359 39.787 C 272.513 39.544,276.383 39.530,276.683 39.772 C 276.812 39.875,277.093 40.013,277.308 40.079 C 277.766 40.220,279.000 41.443,279.000 41.756 C 279.000 41.875,279.079 41.998,279.175 42.031 C 279.271 42.063,279.394 42.770,279.448 43.602 L 279.546 45.115 275.932 45.210 C 273.945 45.262,272.228 45.377,272.118 45.465 C 272.007 45.553,271.560 45.676,271.124 45.739 C 270.688 45.802,270.126 45.961,269.874 46.093 C 269.623 46.224,269.323 46.332,269.208 46.332 C 269.094 46.333,269.000 46.408,269.000 46.500 C 269.000 46.592,268.887 46.667,268.750 46.667 C 268.612 46.667,268.500 46.742,268.500 46.833 C 268.500 46.925,268.403 47.000,268.284 47.000 C 268.015 47.000,267.433 47.422,266.763 48.104 C 266.018 48.862,265.859 49.088,265.739 49.569 C 265.679 49.806,265.576 50.000,265.509 50.000 C 264.979 50.000,264.606 55.952,265.125 56.125 C 265.240 56.163,265.333 56.376,265.333 56.597 C 265.333 56.819,265.402 57.000,265.487 57.000 C 265.571 57.000,265.690 57.225,265.750 57.500 C 265.810 57.775,265.924 58.000,266.002 58.000 C 266.080 58.000,266.188 58.139,266.242 58.309 C 266.368 58.705,267.491 59.833,267.760 59.833 C 267.872 59.833,268.008 59.946,268.060 60.083 C 268.113 60.221,268.271 60.333,268.411 60.333 C 268.552 60.333,268.667 60.405,268.667 60.492 C 268.667 60.580,268.948 60.703,269.292 60.766 C 269.635 60.830,269.970 60.964,270.036 61.066 C 270.200 61.320,275.799 61.321,275.964 61.067 C 276.030 60.967,276.377 60.838,276.737 60.782 C 277.096 60.725,277.434 60.607,277.488 60.519 C 277.542 60.431,277.792 60.308,278.043 60.245 C 278.295 60.182,278.500 60.072,278.500 60.000 C 278.500 59.928,278.683 59.824,278.906 59.768 C 279.129 59.712,279.359 59.516,279.417 59.333 C 279.569 58.852,280.137 58.908,280.265 59.417 C 280.322 59.646,280.430 59.833,280.505 59.833 C 280.579 59.833,280.690 60.058,280.750 60.333 L 280.860 60.833 283.116 60.833 L 285.372 60.833 285.251 60.375 C 285.184 60.123,285.094 59.448,285.050 58.875 C 285.007 58.302,284.908 57.833,284.830 57.833 C 284.752 57.833,284.665 53.968,284.636 49.244 C 284.599 43.206,284.529 40.619,284.399 40.535 C 284.298 40.470,284.163 40.135,284.100 39.792 C 284.037 39.448,283.921 39.167,283.844 39.167 C 283.766 39.167,283.656 38.982,283.600 38.756 C 283.478 38.271,281.924 36.667,281.575 36.667 C 281.442 36.667,281.333 36.592,281.333 36.500 C 281.333 36.408,281.221 36.333,281.083 36.333 C 280.946 36.333,280.833 36.262,280.833 36.174 C 280.833 36.087,280.552 35.963,280.208 35.900 C 279.865 35.837,279.530 35.702,279.464 35.601 C 279.345 35.415,273.024 35.286,271.875 35.446 M301.042 35.446 C 300.744 35.487,300.500 35.591,300.500 35.677 C 300.500 35.763,300.369 35.834,300.208 35.834 C 300.048 35.835,299.702 35.947,299.439 36.084 C 299.177 36.221,298.858 36.333,298.731 36.333 C 298.604 36.333,298.500 36.407,298.500 36.497 C 298.500 36.587,298.313 36.707,298.083 36.765 C 297.854 36.822,297.667 36.928,297.667 37.000 C 297.667 37.072,297.479 37.178,297.250 37.235 C 297.021 37.293,296.833 37.413,296.833 37.503 C 296.833 37.593,296.718 37.667,296.578 37.667 C 296.438 37.667,296.280 37.779,296.227 37.917 C 296.174 38.054,296.027 38.167,295.899 38.167 C 295.771 38.167,295.667 38.054,295.667 37.917 C 295.667 37.779,295.592 37.667,295.500 37.667 C 295.408 37.667,295.332 37.423,295.331 37.125 C 295.325 35.802,295.385 35.833,292.897 35.833 L 290.667 35.833 290.667 48.333 L 290.667 60.833 293.250 60.833 L 295.833 60.833 295.833 52.120 L 295.833 43.407 296.402 42.870 C 296.715 42.575,297.053 42.333,297.152 42.333 C 297.252 42.333,297.333 42.275,297.333 42.205 C 297.333 42.134,297.596 41.934,297.917 41.762 C 298.237 41.589,298.500 41.390,298.500 41.320 C 298.500 41.250,298.725 41.144,299.000 41.083 C 299.275 41.023,299.500 40.913,299.500 40.838 C 299.500 40.764,299.705 40.651,299.957 40.588 C 300.208 40.525,300.465 40.390,300.528 40.289 C 300.707 39.998,303.838 40.030,304.430 40.328 C 305.056 40.643,305.430 41.017,305.574 41.471 C 305.637 41.670,305.756 41.833,305.839 41.833 C 305.921 41.833,306.038 42.208,306.099 42.667 C 306.160 43.125,306.275 43.500,306.355 43.500 C 306.435 43.500,306.500 47.354,306.500 52.167 L 306.500 60.833 309.083 60.833 L 311.667 60.833 311.667 51.333 C 311.667 46.108,311.602 41.833,311.523 41.833 C 311.444 41.833,311.332 41.430,311.274 40.938 C 311.216 40.445,311.056 39.826,310.919 39.563 C 310.781 39.299,310.668 38.990,310.668 38.875 C 310.667 38.760,310.592 38.667,310.500 38.667 C 310.408 38.667,310.333 38.573,310.333 38.458 C 310.332 38.213,308.418 36.333,308.170 36.333 C 308.076 36.333,308.000 36.260,308.000 36.170 C 308.000 36.080,307.794 35.956,307.542 35.894 C 307.290 35.832,307.030 35.700,306.964 35.599 C 306.844 35.414,302.143 35.292,301.042 35.446 M323.875 35.445 C 323.577 35.487,323.333 35.585,323.333 35.664 C 323.333 35.743,323.108 35.856,322.833 35.917 C 322.558 35.977,322.333 36.096,322.333 36.180 C 322.333 36.264,322.183 36.333,322.000 36.333 C 321.817 36.333,321.667 36.408,321.667 36.500 C 321.667 36.592,321.552 36.667,321.411 36.667 C 321.271 36.667,321.113 36.779,321.060 36.917 C 321.008 37.054,320.869 37.167,320.752 37.167 C 320.450 37.167,318.904 38.681,318.768 39.110 C 318.705 39.307,318.544 39.511,318.410 39.563 C 318.276 39.614,318.167 39.771,318.167 39.911 C 318.167 40.052,318.098 40.167,318.013 40.167 C 317.929 40.167,317.810 40.392,317.750 40.667 C 317.690 40.942,317.571 41.167,317.487 41.167 C 317.402 41.167,317.333 41.271,317.333 41.398 C 317.333 41.525,317.221 41.843,317.084 42.106 C 316.947 42.369,316.835 42.752,316.834 42.958 C 316.834 43.165,316.764 43.333,316.680 43.333 C 316.596 43.333,316.480 43.840,316.422 44.458 C 316.365 45.077,316.246 45.714,316.159 45.873 C 315.962 46.232,315.947 50.000,316.142 50.000 C 316.220 50.000,316.332 50.618,316.390 51.374 C 316.448 52.130,316.572 52.774,316.665 52.805 C 316.757 52.836,316.833 52.986,316.833 53.139 C 316.831 53.530,317.374 55.000,317.520 55.000 C 317.586 55.000,317.690 55.225,317.750 55.500 C 317.810 55.775,317.929 56.000,318.013 56.000 C 318.098 56.000,318.167 56.115,318.167 56.255 C 318.167 56.396,318.279 56.554,318.417 56.606 C 318.554 56.659,318.667 56.807,318.667 56.934 C 318.667 57.193,320.753 59.333,321.006 59.333 C 321.094 59.333,321.167 59.407,321.167 59.497 C 321.167 59.587,321.354 59.707,321.583 59.765 C 321.813 59.822,322.000 59.928,322.000 60.000 C 322.000 60.072,322.205 60.182,322.457 60.245 C 322.708 60.308,322.960 60.435,323.016 60.526 C 323.072 60.617,323.448 60.735,323.851 60.788 C 324.254 60.840,324.637 60.966,324.702 61.067 C 324.867 61.321,331.299 61.321,331.464 61.067 C 331.530 60.967,331.954 60.835,332.408 60.774 C 332.861 60.714,333.274 60.596,333.326 60.512 C 333.378 60.428,333.644 60.304,333.918 60.236 C 334.192 60.167,334.642 59.974,334.917 59.807 C 335.192 59.640,335.523 59.452,335.654 59.389 C 336.312 59.074,336.715 58.319,336.346 58.091 C 336.262 58.039,336.143 57.772,336.083 57.498 C 336.023 57.224,335.914 57.000,335.841 57.000 C 335.769 57.000,335.661 56.700,335.603 56.333 C 335.544 55.967,335.422 55.667,335.331 55.667 C 335.241 55.667,335.167 55.554,335.167 55.417 C 335.167 55.279,335.054 55.167,334.917 55.167 C 334.779 55.167,334.667 55.236,334.667 55.320 C 334.667 55.404,334.442 55.523,334.167 55.583 C 333.892 55.644,333.667 55.753,333.667 55.825 C 333.667 55.898,333.367 56.005,333.000 56.064 C 332.633 56.123,332.333 56.235,332.333 56.314 C 332.333 56.393,331.941 56.509,331.462 56.573 C 330.984 56.636,330.500 56.764,330.388 56.857 C 329.988 57.189,325.833 56.694,325.833 56.314 C 325.833 56.247,325.608 56.144,325.333 56.083 C 325.058 56.023,324.833 55.910,324.833 55.831 C 324.833 55.753,324.680 55.640,324.492 55.581 C 324.051 55.441,323.059 54.449,322.919 54.008 C 322.860 53.820,322.747 53.667,322.669 53.667 C 322.590 53.667,322.477 53.442,322.417 53.167 C 322.356 52.892,322.238 52.667,322.153 52.667 C 322.069 52.667,322.000 52.485,322.000 52.264 C 322.000 52.042,321.929 51.836,321.841 51.806 C 321.754 51.775,321.631 51.244,321.568 50.625 L 321.454 49.500 329.394 49.500 L 337.333 49.500 337.333 48.010 C 337.333 47.190,337.258 46.473,337.167 46.417 C 337.075 46.360,337.000 45.868,337.000 45.323 C 337.000 44.779,336.935 44.333,336.857 44.333 C 336.778 44.333,336.670 43.909,336.616 43.391 C 336.562 42.872,336.450 42.403,336.367 42.349 C 336.283 42.295,336.163 41.969,336.100 41.625 C 336.037 41.281,335.919 41.000,335.839 41.000 C 335.759 41.000,335.644 40.775,335.583 40.500 C 335.523 40.225,335.413 40.000,335.338 40.000 C 335.264 40.000,335.156 39.813,335.098 39.583 C 335.041 39.354,334.920 39.167,334.830 39.167 C 334.740 39.167,334.667 39.086,334.667 38.987 C 334.667 38.759,332.752 36.833,332.525 36.833 C 332.433 36.833,332.258 36.739,332.137 36.625 C 332.016 36.510,331.617 36.274,331.250 36.100 C 330.883 35.926,330.433 35.705,330.250 35.608 C 329.913 35.431,324.890 35.302,323.875 35.445 M365.375 35.447 C 364.985 35.487,364.667 35.581,364.667 35.657 C 364.667 35.733,364.329 35.846,363.917 35.908 C 363.504 35.970,363.167 36.091,363.167 36.177 C 363.167 36.263,362.979 36.333,362.750 36.333 C 362.521 36.333,362.333 36.408,362.333 36.500 C 362.333 36.592,362.230 36.667,362.104 36.667 C 361.977 36.667,361.785 36.774,361.676 36.906 C 361.566 37.038,361.263 37.192,361.002 37.249 C 360.741 37.307,360.486 37.462,360.436 37.594 C 360.385 37.725,360.219 37.833,360.067 37.833 C 359.753 37.833,359.841 39.030,360.163 39.138 C 360.257 39.169,360.333 39.295,360.333 39.419 C 360.333 39.542,360.428 39.742,360.543 39.863 C 360.658 39.984,360.902 40.400,361.085 40.788 C 361.267 41.176,361.510 41.529,361.625 41.574 C 361.878 41.674,362.333 41.516,362.333 41.329 C 362.333 41.254,362.558 41.144,362.833 41.083 C 363.108 41.023,363.333 40.910,363.333 40.833 C 363.333 40.756,363.558 40.644,363.833 40.583 C 364.108 40.523,364.333 40.411,364.333 40.335 C 364.333 40.258,364.652 40.143,365.042 40.079 C 365.431 40.015,365.849 39.882,365.970 39.785 C 366.297 39.520,370.036 39.526,370.125 39.792 C 370.163 39.906,370.333 40.000,370.502 40.000 C 370.671 40.000,370.912 40.103,371.038 40.228 C 371.163 40.353,371.431 40.508,371.632 40.572 C 371.834 40.636,372.045 40.871,372.101 41.094 C 372.157 41.317,372.264 41.500,372.338 41.500 C 372.413 41.500,372.523 41.725,372.583 42.000 C 372.644 42.275,372.762 42.500,372.847 42.500 C 372.931 42.500,373.000 43.089,373.000 43.808 L 373.000 45.116 369.311 45.210 C 367.220 45.263,365.577 45.373,365.519 45.465 C 365.463 45.554,365.023 45.680,364.542 45.745 C 364.060 45.811,363.667 45.933,363.667 46.016 C 363.667 46.099,363.509 46.167,363.317 46.167 C 362.958 46.167,361.960 46.652,361.861 46.875 C 361.831 46.944,361.702 47.000,361.577 47.000 C 361.291 47.000,359.500 48.815,359.500 49.104 C 359.500 49.221,359.401 49.377,359.280 49.450 C 358.962 49.642,358.500 50.909,358.500 51.587 C 358.500 51.906,358.425 52.167,358.333 52.167 C 358.128 52.167,358.107 54.777,358.311 54.903 C 358.391 54.952,358.496 55.348,358.545 55.782 C 358.594 56.217,358.716 56.600,358.817 56.633 C 358.918 56.667,359.000 56.876,359.000 57.097 C 359.000 57.319,359.070 57.500,359.155 57.500 C 359.241 57.500,359.362 57.662,359.425 57.859 C 359.488 58.057,359.718 58.384,359.936 58.587 C 360.155 58.789,360.333 59.040,360.333 59.144 C 360.333 59.248,360.412 59.333,360.508 59.333 C 360.604 59.333,360.848 59.510,361.050 59.727 C 361.251 59.943,361.585 60.173,361.792 60.238 C 361.998 60.303,362.167 60.420,362.167 60.498 C 362.167 60.576,362.410 60.692,362.708 60.756 C 363.006 60.820,363.355 60.957,363.484 61.061 C 363.803 61.319,369.298 61.323,369.464 61.066 C 369.530 60.964,369.865 60.830,370.208 60.766 C 370.552 60.703,370.833 60.580,370.833 60.492 C 370.833 60.405,370.912 60.333,371.009 60.333 C 371.334 60.333,372.667 59.660,372.667 59.496 C 372.667 59.406,372.779 59.333,372.917 59.333 C 373.054 59.333,373.167 59.258,373.167 59.167 C 373.167 59.075,373.260 59.001,373.375 59.001 C 373.590 59.003,374.000 59.734,374.000 60.117 C 374.000 60.236,374.075 60.333,374.167 60.333 C 374.258 60.333,374.333 60.446,374.333 60.583 C 374.333 60.793,374.685 60.833,376.500 60.833 L 378.667 60.833 378.667 60.264 C 378.667 59.951,378.579 59.665,378.473 59.630 C 378.329 59.582,378.259 57.187,378.203 50.491 C 378.161 45.500,378.070 41.342,378.001 41.250 C 377.932 41.158,377.824 40.727,377.761 40.292 C 377.698 39.856,377.584 39.500,377.508 39.500 C 377.432 39.500,377.322 39.313,377.265 39.083 C 377.207 38.854,377.087 38.667,376.997 38.667 C 376.907 38.667,376.833 38.573,376.832 38.458 C 376.831 38.208,375.266 36.667,375.012 36.667 C 374.914 36.667,374.833 36.609,374.833 36.539 C 374.833 36.388,373.600 35.833,373.263 35.833 C 373.134 35.833,372.997 35.740,372.958 35.625 C 372.888 35.415,367.039 35.278,365.375 35.447 M70.862 45.589 C 70.900 52.421,70.971 55.381,71.099 55.464 C 71.200 55.530,71.328 55.877,71.385 56.237 C 71.442 56.596,71.560 56.934,71.648 56.988 C 71.735 57.042,71.858 57.292,71.922 57.543 C 71.985 57.795,72.103 58.000,72.185 58.000 C 72.266 58.000,72.333 58.100,72.333 58.222 C 72.333 58.345,72.558 58.645,72.833 58.890 C 73.108 59.135,73.333 59.395,73.333 59.468 C 73.333 59.540,73.631 59.783,73.996 60.008 C 74.360 60.233,74.660 60.470,74.662 60.534 C 74.665 60.599,74.948 60.703,75.292 60.766 C 75.635 60.830,75.970 60.964,76.036 61.066 C 76.201 61.322,81.633 61.321,81.798 61.065 C 81.863 60.963,82.273 60.827,82.708 60.763 C 83.144 60.699,83.500 60.584,83.500 60.508 C 83.500 60.432,83.762 60.321,84.083 60.261 C 84.404 60.201,84.667 60.085,84.667 60.004 C 84.667 59.922,84.835 59.803,85.042 59.737 C 85.248 59.672,85.532 59.487,85.673 59.325 C 85.919 59.042,86.201 58.938,86.610 58.980 C 86.717 58.991,86.855 59.300,86.917 59.667 C 86.979 60.033,87.098 60.333,87.181 60.333 C 87.265 60.333,87.333 60.446,87.333 60.583 C 87.333 60.793,87.685 60.833,89.497 60.833 L 91.662 60.833 91.559 59.792 C 91.503 59.219,91.392 58.679,91.312 58.592 C 91.232 58.505,91.167 53.348,91.167 47.133 L 91.167 35.833 88.583 35.833 L 86.000 35.833 85.997 45.125 L 85.994 54.417 85.599 54.792 C 85.381 54.998,85.152 55.167,85.090 55.167 C 85.027 55.167,84.872 55.260,84.744 55.375 C 84.212 55.852,84.038 55.965,83.654 56.085 C 83.432 56.155,83.212 56.258,83.167 56.314 C 82.936 56.598,81.245 57.000,80.281 57.000 C 78.502 57.000,76.500 55.677,76.500 54.502 C 76.500 54.333,76.406 54.163,76.292 54.125 C 76.129 54.071,76.072 52.048,76.031 44.945 L 75.979 35.833 73.393 35.833 L 70.808 35.833 70.862 45.589 M135.002 39.838 C 135.048 39.912,135.292 40.025,135.543 40.088 C 135.795 40.151,136.000 40.270,136.000 40.351 C 136.000 40.433,136.099 40.500,136.219 40.500 C 136.505 40.500,138.000 41.995,138.000 42.281 C 138.000 42.401,138.074 42.500,138.163 42.500 C 138.253 42.500,138.374 42.688,138.432 42.917 C 138.489 43.146,138.598 43.333,138.675 43.333 C 138.751 43.333,138.864 43.671,138.925 44.083 C 138.987 44.496,139.104 44.833,139.186 44.833 C 139.267 44.833,139.333 45.133,139.333 45.500 C 139.333 45.867,139.408 46.167,139.500 46.167 C 139.602 46.167,139.667 46.972,139.667 48.250 C 139.667 49.528,139.602 50.333,139.500 50.333 C 139.408 50.333,139.333 50.633,139.333 51.000 C 139.333 51.367,139.263 51.667,139.177 51.667 C 139.091 51.667,138.970 52.004,138.908 52.417 C 138.846 52.829,138.735 53.167,138.661 53.167 C 138.587 53.167,138.477 53.392,138.417 53.667 C 138.356 53.942,138.243 54.167,138.165 54.167 C 138.086 54.167,137.971 54.329,137.908 54.526 C 137.774 54.949,136.679 55.998,136.370 55.999 C 136.252 56.000,136.113 56.112,136.060 56.250 C 136.008 56.387,135.799 56.500,135.597 56.500 C 135.396 56.500,135.085 56.610,134.907 56.745 C 134.536 57.025,131.856 57.103,131.373 56.847 C 131.214 56.762,130.746 56.529,130.335 56.328 C 129.033 55.693,127.170 53.377,127.167 52.389 C 127.167 52.282,127.087 52.168,126.990 52.136 C 126.893 52.103,126.770 51.497,126.716 50.788 C 126.662 50.080,126.554 49.500,126.476 49.500 C 126.281 49.500,126.295 47.232,126.492 46.873 C 126.579 46.714,126.698 46.077,126.755 45.458 C 126.813 44.840,126.929 44.333,127.013 44.333 C 127.098 44.333,127.167 44.146,127.167 43.917 C 127.167 43.688,127.236 43.500,127.320 43.500 C 127.404 43.500,127.522 43.281,127.580 43.014 C 127.639 42.747,127.795 42.486,127.927 42.436 C 128.059 42.385,128.167 42.263,128.167 42.165 C 128.167 41.823,129.435 40.500,129.763 40.500 C 129.893 40.500,130.000 40.431,130.000 40.347 C 130.000 40.262,130.225 40.144,130.500 40.083 C 130.775 40.023,131.000 39.909,131.000 39.830 C 131.000 39.511,134.802 39.518,135.002 39.838 M328.215 39.815 C 328.317 39.917,328.518 40.000,328.661 40.000 C 328.805 40.000,329.259 40.334,329.670 40.741 C 330.685 41.749,330.803 41.905,330.928 42.402 C 330.987 42.639,331.098 42.833,331.175 42.833 C 331.251 42.833,331.359 43.190,331.415 43.625 C 331.471 44.060,331.588 44.547,331.675 44.706 C 332.012 45.322,331.918 45.333,326.643 45.333 L 321.453 45.333 321.552 44.378 C 321.606 43.852,321.729 43.396,321.825 43.364 C 321.921 43.332,322.000 43.124,322.000 42.903 C 322.000 42.681,322.075 42.500,322.167 42.500 C 322.258 42.500,322.333 42.399,322.333 42.276 C 322.333 42.153,322.483 41.916,322.667 41.750 C 322.850 41.584,323.000 41.386,323.000 41.309 C 323.000 41.115,323.544 40.500,323.716 40.500 C 323.793 40.500,323.970 40.387,324.107 40.250 C 324.245 40.112,324.502 40.000,324.679 40.000 C 324.855 40.000,325.000 39.930,325.000 39.844 C 325.000 39.487,327.861 39.461,328.215 39.815 M106.236 39.811 C 106.286 39.891,106.778 40.007,107.330 40.070 C 107.882 40.132,108.333 40.254,108.333 40.342 C 108.333 40.429,108.411 40.500,108.507 40.500 C 108.689 40.500,109.508 41.047,110.067 41.542 C 110.248 41.702,110.457 41.833,110.531 41.833 C 110.606 41.833,110.667 41.942,110.667 42.075 C 110.667 42.208,110.771 42.377,110.898 42.450 C 111.096 42.564,111.668 43.595,112.396 45.151 C 112.671 45.738,112.652 51.199,112.375 51.292 C 112.260 51.330,112.167 51.538,112.167 51.754 C 112.167 51.970,112.097 52.190,112.013 52.242 C 111.928 52.294,111.810 52.561,111.750 52.835 C 111.689 53.109,111.576 53.333,111.498 53.333 C 111.420 53.333,111.303 53.499,111.239 53.702 C 111.046 54.309,108.987 56.167,108.507 56.167 C 108.411 56.167,108.333 56.224,108.333 56.294 C 108.333 56.840,104.580 57.148,103.024 56.730 C 101.364 56.284,101.500 57.053,101.500 48.117 L 101.500 40.210 102.125 40.107 C 102.469 40.050,102.956 40.003,103.208 40.002 C 103.460 40.001,103.667 39.925,103.667 39.833 C 103.667 39.628,106.110 39.607,106.236 39.811 M279.500 52.089 C 279.500 54.719,279.471 55.021,279.208 55.118 C 279.048 55.177,278.751 55.400,278.550 55.613 C 278.348 55.826,278.146 56.000,278.102 56.000 C 278.058 56.000,277.811 56.087,277.553 56.193 C 275.085 57.205,273.724 57.275,272.080 56.473 C 271.486 56.184,271.000 55.895,271.000 55.831 C 271.000 55.767,270.795 55.498,270.545 55.233 C 270.029 54.686,269.824 51.698,270.292 51.542 C 270.406 51.504,270.500 51.403,270.500 51.319 C 270.500 51.086,271.091 50.546,271.484 50.422 C 271.676 50.361,271.833 50.244,271.833 50.161 C 271.833 50.079,272.210 49.962,272.670 49.900 C 273.131 49.839,273.548 49.724,273.597 49.645 C 273.646 49.565,274.357 49.500,275.177 49.500 C 276.059 49.500,276.667 49.432,276.667 49.333 C 276.667 49.235,277.250 49.167,278.083 49.167 L 279.500 49.167 279.500 52.089 M373.000 52.000 C 373.000 55.054,372.936 55.286,372.016 55.578 C 371.824 55.639,371.667 55.753,371.667 55.831 C 371.667 55.910,371.442 56.023,371.167 56.083 C 370.892 56.144,370.667 56.247,370.667 56.312 C 370.667 57.173,366.121 57.128,365.036 56.255 C 364.266 55.637,363.837 55.059,363.723 54.488 C 363.668 54.216,363.558 53.953,363.478 53.903 C 363.276 53.778,363.296 52.333,363.500 52.333 C 363.592 52.333,363.667 52.169,363.667 51.968 C 363.667 51.576,364.871 50.333,365.250 50.333 C 365.372 50.333,365.499 50.253,365.531 50.156 C 365.564 50.058,365.908 49.936,366.295 49.884 C 366.683 49.832,367.000 49.724,367.000 49.645 C 367.000 49.565,367.712 49.500,368.583 49.500 C 369.528 49.500,370.167 49.433,370.167 49.333 C 370.167 49.235,370.750 49.167,371.583 49.167 L 373.000 49.167 373.000 52.000 " stroke="none" fill="#040404" fill-rule="evenodd"></path><path id="path3" d="" stroke="none" fill="#24543c" fill-rule="evenodd"></path><path id="path4" d="" stroke="none" fill="#240440" fill-rule="evenodd"></path></g></svg>