<?xml version="1.0" encoding="UTF-8" standalone="no"?>
<!-- Created with Inkscape (http://www.inkscape.org/) -->

<svg
   xmlns:dc="http://purl.org/dc/elements/1.1/"
   xmlns:cc="http://creativecommons.org/ns#"
   xmlns:rdf="http://www.w3.org/1999/02/22-rdf-syntax-ns#"
   xmlns:svg="http://www.w3.org/2000/svg"
   xmlns="http://www.w3.org/2000/svg"
   xmlns:sodipodi="http://sodipodi.sourceforge.net/DTD/sodipodi-0.dtd"
   xmlns:inkscape="http://www.inkscape.org/namespaces/inkscape"
   width="128.6143mm"
   height="35.740623mm"
   viewBox="0 0 455.71996 126.64"
   id="svg7854"
   version="1.1"
   inkscape:version="0.91 r13725"
   sodipodi:docname="McGraw-Hill Education (jusqu'en 2013).svg">
  <defs
     id="defs7856">
    <clipPath
       id="clipPath7128"
       clipPathUnits="userSpaceOnUse">
      <path
         inkscape:connector-curvature="0"
         id="path7130"
         d="m 356.041,470.607 91.144,0 0,25.328 -91.144,0 0,-25.328 z" />
    </clipPath>
  </defs>
  <sodipodi:namedview
     id="base"
     pagecolor="#ffffff"
     bordercolor="#666666"
     borderopacity="1.0"
     inkscape:pageopacity="0.0"
     inkscape:pageshadow="2"
     inkscape:zoom="0.98994949"
     inkscape:cx="-23.672362"
     inkscape:cy="12.505906"
     inkscape:document-units="px"
     inkscape:current-layer="layer1"
     showgrid="false"
     fit-margin-top="0"
     fit-margin-left="0"
     fit-margin-right="0"
     fit-margin-bottom="0"
     inkscape:window-width="1920"
     inkscape:window-height="1017"
     inkscape:window-x="-8"
     inkscape:window-y="-8"
     inkscape:window-maximized="1" />
  <metadata
     id="metadata7859">
    <rdf:RDF>
      <cc:Work
         rdf:about="">
        <dc:format>image/svg+xml</dc:format>
        <dc:type
           rdf:resource="http://purl.org/dc/dcmitype/StillImage" />
        <dc:title></dc:title>
      </cc:Work>
    </rdf:RDF>
  </metadata>
  <g
     inkscape:label="Calque 1"
     inkscape:groupmode="layer"
     id="layer1"
     transform="translate(-360.71142,-183.32792)">
    <g
       id="g7942"
       transform="matrix(4,0,0,4,-1765.7143,-739.94376)">
      <path
         inkscape:connector-curvature="0"
         id="path7122"
         style="fill:#373535;fill-opacity:1;fill-rule:nonzero;stroke:none"
         d="m 570.21868,240.06268 7.96375,0 0,2.6225 -4.72375,0 0,2.7575 4.435,0 0,2.6225 -4.435,0 0,3.1425 4.93625,0 0,2.6225 -8.17625,0 0,-13.7675 z" />
      <g
         transform="matrix(1.25,0,0,-1.25,86.555179,850.73667)"
         id="g7126"
         clip-path="url(#clipPath7128)">
        <g
           id="g7132"
           transform="translate(398.593,477.5249)">
          <path
             d="m 0,0 2.406,0 0,11.014 -2.498,0 0,-3.578 -0.031,0 C -0.54,8.33 -1.296,8.561 -1.99,8.561 c -2.052,0 -2.422,-1.866 -2.422,-4.457 0,-3.117 0.895,-4.32 2.576,-4.32 1.111,0 1.62,0.663 1.805,1.234 L 0,1.018 0,0 Z m -0.046,4.119 c 0,-1.62 -0.154,-2.515 -0.895,-2.515 -0.941,0 -0.972,1.281 -0.972,2.623 0,1.512 0.046,2.514 0.957,2.514 0.848,0 0.91,-1.141 0.91,-2.622"
             style="fill:#373535;fill-opacity:1;fill-rule:nonzero;stroke:none"
             id="path7134"
             inkscape:connector-curvature="0" />
        </g>
        <g
           id="g7136"
           transform="translate(408.6971,477.5249)">
          <path
             d="m 0,0 -2.406,0 0,0.987 -0.031,0 c -0.355,-0.74 -1.08,-1.203 -2.006,-1.203 -1.419,0 -2.175,0.71 -2.175,2.314 l 0,6.247 2.499,0 0,-5.692 c 0,-0.601 0.262,-0.956 0.725,-0.956 0.478,0 0.895,0.37 0.895,1.188 l 0,5.46 L 0,8.345 0,0 Z"
             style="fill:#373535;fill-opacity:1;fill-rule:nonzero;stroke:none"
             id="path7138"
             inkscape:connector-curvature="0" />
        </g>
        <g
           id="g7140"
           transform="translate(414.0345,482.7235)">
          <path
             d="m 0,0 c 0,1.218 -0.278,1.728 -0.941,1.728 -0.833,0 -0.941,-1.049 -0.941,-2.762 0,-1.882 0.108,-2.746 0.941,-2.746 0.741,0 0.91,0.51 0.941,1.975 l 2.314,0 c -0.016,-2.576 -1.034,-3.61 -3.301,-3.61 -3.147,0 -3.394,2.206 -3.394,4.69 0,2.345 0.679,4.088 3.394,4.088 C 1.635,3.363 2.314,1.99 2.314,0 L 0,0 Z"
             style="fill:#373535;fill-opacity:1;fill-rule:nonzero;stroke:none"
             id="path7142"
             inkscape:connector-curvature="0" />
        </g>
        <g
           id="g7144"
           transform="translate(419.3718,483.3096)">
          <path
             d="m 0,0 c 0.015,0.725 0.216,1.141 0.91,1.141 0.555,0 0.787,-0.323 0.787,-0.833 0,-0.632 -0.139,-0.755 -0.895,-0.956 -0.694,-0.185 -1.62,-0.339 -2.237,-0.679 -0.617,-0.339 -1.018,-1.157 -1.018,-2.128 0,-1.805 0.818,-2.546 2.221,-2.546 0.834,0 1.62,0.432 1.96,1.173 l 0.03,0 c 0.016,-0.324 0.047,-0.664 0.139,-0.957 l 2.407,0 c -0.293,0.37 -0.293,1.173 -0.293,1.805 l 0,4.288 c 0,1.759 -0.91,2.469 -2.962,2.469 -1.034,0 -1.743,-0.139 -2.33,-0.54 C -1.867,1.836 -2.206,1.141 -2.221,0 L 0,0 Z m -0.046,-3.208 c 0,0.462 0.123,0.724 0.385,0.925 0.232,0.185 0.571,0.201 1.358,0.617 0,-0.339 -0.016,-0.771 -0.016,-1.465 0,-0.833 -0.478,-1.142 -1.002,-1.142 -0.463,0 -0.725,0.401 -0.725,1.065"
             style="fill:#373535;fill-opacity:1;fill-rule:nonzero;stroke:none"
             id="path7146"
             inkscape:connector-curvature="0" />
        </g>
        <g
           id="g7148"
           transform="translate(425.0795,484.1427)">
          <path
             d="m 0,0 -1.034,0 0,1.728 1.034,0 0,2.452 2.499,0 0,-2.452 1.157,0 0,-1.728 -1.157,0 0,-4.211 c 0,-0.586 0.216,-0.772 0.802,-0.772 0.108,0 0.247,0.016 0.355,0.031 l 0,-1.666 C 3.178,-6.68 2.699,-6.71 2.221,-6.71 0.494,-6.71 0,-6.402 0,-4.458 L 0,0 Z"
             style="fill:#373535;fill-opacity:1;fill-rule:nonzero;stroke:none"
             id="path7150"
             inkscape:connector-curvature="0" />
        </g>
        <path
           d="m 429.522,488.663 2.499,0 0,-1.913 -2.499,0 0,1.913 z m 0,-2.793 2.499,0 0,-8.345 -2.499,0 0,8.345 z"
           style="fill:#373535;fill-opacity:1;fill-rule:nonzero;stroke:none"
           id="path7152"
           inkscape:connector-curvature="0" />
        <g
           id="g7154"
           transform="translate(436.32491,477.30901)">
          <path
             d="M 0,0 C 2.884,0 3.44,1.913 3.44,4.412 3.44,6.911 3.054,8.777 0,8.777 -2.885,8.777 -3.44,6.865 -3.44,4.366 -3.44,1.867 -3.054,0 0,0 m 0.941,4.381 c 0,-2.052 -0.155,-2.746 -0.926,-2.746 -0.74,0 -0.956,0.725 -0.956,2.761 0,2.021 0.216,2.746 0.956,2.746 0.771,0 0.926,-0.694 0.926,-2.761"
             style="fill:#373535;fill-opacity:1;fill-rule:nonzero;stroke:none"
             id="path7156"
             inkscape:connector-curvature="0" />
        </g>
        <g
           id="g7158"
           transform="translate(440.56709,485.8703)">
          <path
             d="m 0,0 2.406,0 0,-0.987 0.031,0 c 0.355,0.74 1.08,1.203 2.006,1.203 1.419,0 2.175,-0.71 2.175,-2.314 l 0,-6.247 -2.499,0 0,5.692 c 0,0.601 -0.262,0.956 -0.725,0.956 -0.478,0 -0.895,-0.37 -0.895,-1.188 l 0,-5.46 L 0,-8.345 0,0 Z"
             style="fill:#373535;fill-opacity:1;fill-rule:nonzero;stroke:none"
             id="path7160"
             inkscape:connector-curvature="0" />
        </g>
        <path
           d="m 381.18,495.872 -24.915,0 0,-25.139 24.915,0 0,25.139 z"
           style="fill:#ffffff;fill-opacity:1;fill-rule:nonzero;stroke:none"
           id="path7162"
           inkscape:connector-curvature="0" />
        <path
           d="m 381.305,495.935 -25.264,0 0,-25.328 25.264,0 0,25.328 z"
           style="fill:#ee333e;fill-opacity:1;fill-rule:nonzero;stroke:none"
           id="path7164"
           inkscape:connector-curvature="0" />
        <g
           id="g7166"
           transform="translate(358.7318,487.6377)">
          <path
             d="m 0,0 -1.813,0 0,7.605 2.874,0 1.296,-4.776 0.063,0 1.233,4.776 2.946,0 L 6.599,0 4.786,0 4.967,5.83 4.904,5.83 3.181,0 1.613,0 -0.127,5.83 -0.181,5.83 0,0 Z"
             style="fill:#ffffff;fill-opacity:1;fill-rule:nonzero;stroke:none"
             id="path7168"
             inkscape:connector-curvature="0" />
        </g>
        <g
           id="g7170"
           transform="translate(370.571,489.7672)">
          <path
             d="m 0,0 c 0,-0.994 -0.154,-1.541 -0.526,-1.835 -0.362,-0.304 -0.933,-0.355 -1.776,-0.355 -1.84,0 -2.275,0.618 -2.275,2.717 0,1.805 0.326,2.728 2.275,2.728 C -0.934,3.255 0,3.092 0,1.196 l -1.559,0 c 0.009,0.284 -0.018,0.456 -0.127,0.568 -0.109,0.111 -0.29,0.152 -0.616,0.152 -0.553,0 -0.716,-0.172 -0.716,-1.389 0,-1.247 0.126,-1.379 0.716,-1.379 0.707,0 0.743,0.193 0.743,0.852 L 0,0 Z"
             style="fill:#ffffff;fill-opacity:1;fill-rule:nonzero;stroke:none"
             id="path7172"
             inkscape:connector-curvature="0" />
        </g>
        <g
           id="g7174"
           transform="translate(361.22659,484.6369)">
          <path
             d="m 0,0 c -0.036,0.771 -0.625,0.76 -1.169,0.76 -1.305,0 -1.342,-0.446 -1.36,-1.672 l 0,-1.238 c 0,-1.348 0.417,-1.49 1.36,-1.49 0.924,0 1.169,0.233 1.169,1.287 l -1.251,0 0,1.41 3.091,0 0,-1.328 c 0,-2.566 -0.58,-3.032 -3.009,-3.032 -2.14,0 -3.227,0.406 -3.227,2.869 l 0,1.967 c 0,2.515 1.233,2.89 3.227,2.89 C 0.589,2.423 1.84,2.413 1.84,0 L 0,0 Z"
             style="fill:#ffffff;fill-opacity:1;fill-rule:nonzero;stroke:none"
             id="path7176"
             inkscape:connector-curvature="0" />
        </g>
        <g
           id="g7178"
           transform="translate(366.1985,482.6496)">
          <path
             d="m 0,0 c 0,0.375 0.018,0.791 -0.408,0.791 -0.471,0 -0.58,-0.416 -0.58,-0.852 l 0,-3.194 -1.559,0 0,5.324 1.514,0 0,-0.781 0.063,0 c 0.209,0.607 0.617,0.841 1.197,0.841 1.087,0 1.178,-0.994 1.178,-1.967 l 0,-0.415 L 0,-0.253 0,0 Z"
             style="fill:#ffffff;fill-opacity:1;fill-rule:nonzero;stroke:none"
             id="path7180"
             inkscape:connector-curvature="0" />
        </g>
        <g
           id="g7182"
           transform="translate(371.0038,479.39461)">
          <path
             d="m 0,0 1.559,0 0,3.326 c 0,1.835 -0.671,2.058 -2.266,2.058 -1.115,0 -2.194,0.01 -2.194,-1.643 l 1.56,0 c 0,0.477 0.245,0.579 0.634,0.579 C -0.027,4.32 0,4.005 0,3.508 l 0,-0.841 -0.072,0 c -0.173,0.608 -0.852,0.598 -1.297,0.598 -1.123,0 -1.722,-0.396 -1.722,-1.673 0,-1.359 0.635,-1.653 1.722,-1.653 0.544,0 1.252,0.122 1.369,0.852 l 0.054,0 L 0,0 Z m -0.939,2.201 c 0.508,0 0.852,-0.041 0.852,-0.487 0,-0.558 -0.199,-0.649 -0.852,-0.649 -0.236,0 -0.68,0 -0.68,0.578 0,0.486 0.299,0.558 0.68,0.558"
             style="fill:#ffffff;fill-opacity:1;fill-rule:nonzero;stroke:none"
             id="path7184"
             inkscape:connector-curvature="0" />
        </g>
        <g
           id="g7186"
           transform="translate(379.5652,479.39461)">
          <path
             d="m 0,0 -2.239,0 -0.67,3.792 -0.055,0 L -3.616,0 l -2.266,0 -0.862,5.324 1.496,0 0.525,-4.158 0.073,0 0.789,4.158 1.821,0 0.789,-4.158 0.063,0 0.554,4.158 1.468,0 L 0,0 Z"
             style="fill:#ffffff;fill-opacity:1;fill-rule:nonzero;stroke:none"
             id="path7188"
             inkscape:connector-curvature="0" />
        </g>
        <g
           id="g7190"
           transform="translate(362.9375,471.1517)">
          <path
             d="m 0,0 -1.813,0 0,2.981 -2.366,0 0,-2.981 -1.812,0 0,7.604 1.812,0 0,-2.859 2.366,0 0,2.859 L 0,7.604 0,0 Z"
             style="fill:#ffffff;fill-opacity:1;fill-rule:nonzero;stroke:none"
             id="path7192"
             inkscape:connector-curvature="0" />
        </g>
        <path
           d="m 365.203,477.418 -1.559,0 0,1.339 1.559,0 0,-1.339 z m 0,-6.266 -1.559,0 0,5.324 1.559,0 0,-5.324 z"
           style="fill:#ffffff;fill-opacity:1;fill-rule:nonzero;stroke:none"
           id="path7194"
           inkscape:connector-curvature="0" />
        <path
           d="m 367.446,471.152 -1.559,0 0,7.604 1.559,0 0,-7.604 z"
           style="fill:#ffffff;fill-opacity:1;fill-rule:nonzero;stroke:none"
           id="path7196"
           inkscape:connector-curvature="0" />
        <path
           d="m 369.904,471.152 -1.559,0 0,7.604 1.559,0 0,-7.604 z"
           style="fill:#ffffff;fill-opacity:1;fill-rule:nonzero;stroke:none"
           id="path7198"
           inkscape:connector-curvature="0" />
      </g>
    </g>
  </g>
</svg>
