<?xml version="1.0" encoding="UTF-8" standalone="no"?>
<!-- Created with Inkscape (http://www.inkscape.org/) -->
<svg
   xmlns:svg="http://www.w3.org/2000/svg"
   xmlns="http://www.w3.org/2000/svg"
   version="1.0"
   width="1311.0236"
   height="241.29921"
   id="svg2">
  <defs
     id="defs4">
    <clipPath
       id="clipPath2510">
      <path
         d="M 0,0 L 1776.189,0 L 1776.189,841.89 L 0,841.89 L 0,0 z"
         id="path2512" />
    </clipPath>
    <clipPath
       id="clipPath2502">
      <path
         d="M 0,0 L 1776.189,0 L 1776.189,841.89 L 0,841.89 L 0,0 z"
         id="path2504" />
    </clipPath>
    <clipPath
       id="clipPath2494">
      <path
         d="M 0,0 L 1776.189,0 L 1776.189,841.89 L 0,841.89 L 0,0 z"
         id="path2496" />
    </clipPath>
    <clipPath
       id="clipPath2486">
      <path
         d="M 0,0 L 1776.189,0 L 1776.189,841.89 L 0,841.89 L 0,0 z"
         id="path2488" />
    </clipPath>
    <clipPath
       id="clipPath2466">
      <path
         d="M 62.158,794.821 L 143.379,794.821 L 143.379,829.377 L 62.158,829.377 L 62.158,794.821 z"
         id="path2468" />
    </clipPath>
    <clipPath
       id="clipPath2442">
      <path
         d="M 595.275,23.015 L 628.157,23.015 L 628.157,75.25 L 595.275,75.25 L 595.275,23.015 z"
         id="path2444" />
    </clipPath>
    <clipPath
       id="clipPath2836">
      <path
         d="M 0.03,898.59 L 2409.45,898.59 L 2409.45,0.03 L 0.03,0.03 L 0.03,898.59 z"
         id="path2838" />
    </clipPath>
    <clipPath
       id="clipPath2828">
      <path
         d="M 0,898 L 2409,898 L 2409,0 L 0,0 L 0,898 z"
         id="path2830" />
    </clipPath>
    <clipPath
       id="clipPath2820">
      <path
         d="M 0.03,898.59 L 2409.45,898.59 L 2409.45,0.03 L 0.03,0.03 L 0.03,898.59 z"
         id="path2822" />
    </clipPath>
    <clipPath
       id="clipPath2812">
      <path
         d="M 0,898 L 2409,898 L 2409,0 L 0,0 L 0,898 z"
         id="path2814" />
    </clipPath>
    <clipPath
       id="clipPath2678">
      <path
         d="M 0.03,898.59 L 2409.45,898.59 L 2409.45,0.03 L 0.03,0.03 L 0.03,898.59 z"
         id="path2680" />
    </clipPath>
    <clipPath
       id="clipPath2670">
      <path
         d="M 0,898 L 2409,898 L 2409,0 L 0,0 L 0,898 z"
         id="path2672" />
    </clipPath>
    <clipPath
       id="clipPath2656">
      <path
         d="M 0.03,898.59 L 2409.45,898.59 L 2409.45,0.03 L 0.03,0.03 L 0.03,898.59 z"
         id="path2658" />
    </clipPath>
    <clipPath
       id="clipPath2648">
      <path
         d="M 0,898 L 2409,898 L 2409,0 L 0,0 L 0,898 z"
         id="path2650" />
    </clipPath>
    <clipPath
       id="clipPath2640">
      <path
         d="M 587.253,449 L 885.6,449 L 885.6,19.551 L 587.253,19.551 L 587.253,449 z"
         id="path2642" />
    </clipPath>
    <clipPath
       id="clipPath3271">
      <path
         d="M 57.637,754.582 L 241.889,754.582 L 241.889,784.845 L 57.637,784.845 L 57.637,754.582 z"
         id="path3273" />
    </clipPath>
    <clipPath
       id="clipPath3631">
      <path
         d="M 0.03,841.415 L 595.05,841.415 L 595.05,0 L 0.03,0 L 0.03,841.415 z"
         id="path3633" />
    </clipPath>
    <clipPath
       id="clipPath3619">
      <path
         d="M 0.03,841.415 L 595.05,841.415 L 595.05,0 L 0.03,0 L 0.03,841.415 z"
         id="path3621" />
    </clipPath>
  </defs>
  <g
     transform="translate(-715.09551,-94.925536)"
     id="layer1">
    <g
       transform="matrix(3.655707,0,0,3.655707,-1863.6513,-669.67277)"
       id="g3806">
      <path
         d="M 798.64555,228.7313 L 790.3868,228.7313 L 790.3868,240.24255 L 798.64555,240.24255 C 802.36305,240.24255 804.8943,238.1263 804.8943,234.5113 C 804.8943,230.8988 802.36305,228.7313 798.64555,228.7313 z M 805.10055,260.4838 L 797.3518,244.99505 L 790.3868,244.99505 L 790.3868,260.4838 L 784.80805,260.4838 L 784.80805,223.72005 L 799.0568,223.72005 C 806.0293,223.72005 810.46805,228.21005 810.46805,234.45755 C 810.46805,239.7238 807.26805,243.0838 803.13555,244.22005 L 811.6043,260.4838 L 805.10055,260.4838"
         id="path3643"
         style="fill:#ffffff;fill-opacity:1;fill-rule:nonzero;stroke:none" />
      <path
         d="M 829.0593,241.69005 C 828.2343,239.72255 826.3718,238.3813 823.8968,238.3813 C 821.4218,238.3813 819.5093,239.72255 818.6843,241.69005 C 818.1593,242.87755 818.0593,243.6513 818.0093,245.25005 L 829.7843,245.25005 C 829.7218,243.6513 829.5718,242.87755 829.0593,241.69005 z M 818.0093,248.91755 C 818.0093,253.40755 820.3843,256.24755 824.6718,256.24755 C 827.6093,256.24755 829.1593,255.42755 831.0218,253.56505 L 834.3718,256.71505 C 831.6843,259.4013 829.1593,260.7938 824.5718,260.7938 C 818.0093,260.7938 812.7943,257.33505 812.7943,247.3663 C 812.7943,238.90005 817.1843,233.99505 823.8968,233.99505 C 830.9218,233.99505 834.9968,239.15755 834.9968,246.5938 L 834.9968,248.91755 L 818.0093,248.91755"
         id="path3647"
         style="fill:#ffffff;fill-opacity:1;fill-rule:nonzero;stroke:none" />
      <path
         d="M 853.0218,241.69005 C 852.1843,239.72255 850.3343,238.3813 847.8468,238.3813 C 845.3718,238.3813 843.4593,239.72255 842.6343,241.69005 C 842.1218,242.87755 842.0218,243.6513 841.9593,245.25005 L 853.7343,245.25005 C 853.6843,243.6513 853.5343,242.87755 853.0218,241.69005 z M 841.9593,248.91755 C 841.9593,253.40755 844.3468,256.24755 848.6218,256.24755 C 851.5718,256.24755 853.1218,255.42755 854.9843,253.56505 L 858.3343,256.71505 C 855.6468,259.4013 853.1218,260.7938 848.5218,260.7938 C 841.9593,260.7938 836.7468,257.33505 836.7468,247.3663 C 836.7468,238.90005 841.1468,233.99505 847.8468,233.99505 C 854.8718,233.99505 858.9468,239.15755 858.9468,246.5938 L 858.9468,248.91755 L 841.9593,248.91755"
         id="path3651"
         style="fill:#ffffff;fill-opacity:1;fill-rule:nonzero;stroke:none" />
      <path
         d="M 871.5468,238.69255 C 866.7968,238.69255 866.0843,242.7213 866.0843,247.3663 C 866.0843,252.0163 866.7968,256.0963 871.5468,256.0963 C 876.3093,256.0963 876.9718,252.0163 876.9718,247.3663 C 876.9718,242.7213 876.3093,238.69255 871.5468,238.69255 z M 877.0718,260.4838 L 877.0718,257.6938 C 875.1093,260.07255 872.9968,260.7938 870.1593,260.7938 C 867.5218,260.7938 865.1968,259.9163 863.7593,258.4688 C 861.1218,255.83755 860.8093,251.3438 860.8093,247.3663 C 860.8093,243.39255 861.1218,238.95505 863.7593,236.3188 C 865.1968,234.87255 867.4718,233.9963 870.1093,233.9963 C 872.8968,233.9963 875.0718,234.66505 876.9718,236.94005 L 876.9718,223.72005 L 882.2343,223.72005 L 882.2343,260.4838 L 877.0718,260.4838"
         id="path3655"
         style="fill:#ffffff;fill-opacity:1;fill-rule:nonzero;stroke:none" />
      <path
         d="M 895.5218,260.4838 L 895.5218,223.72005 L 919.0093,223.72005 L 919.0093,228.7313 L 901.0968,228.7313 L 901.0968,239.4688 L 916.3843,239.4688 L 916.3843,244.4238 L 901.0968,244.4238 L 901.0968,255.4763 L 919.0093,255.4763 L 919.0093,260.4838 L 895.5218,260.4838"
         id="path3659"
         style="fill:#ffffff;fill-opacity:1;fill-rule:nonzero;stroke:none" />
      <path
         d="M 929.1843,260.4838 C 924.1718,260.4838 922.0093,257.1263 922.0093,253.2563 L 922.0093,223.72005 L 927.2718,223.72005 L 927.2718,252.9438 C 927.2718,254.95755 927.9968,255.99005 930.1093,255.99005 L 932.4343,255.99005 L 932.4343,260.4838 L 929.1843,260.4838"
         id="path3663"
         style="fill:#ffffff;fill-opacity:1;fill-rule:nonzero;stroke:none" />
      <path
         d="M 944.4093,260.7938 C 940.1218,260.7938 936.5093,260.07255 933.4218,257.0238 L 936.8718,253.56505 C 938.9843,255.7338 941.8343,256.29755 944.4093,256.29755 C 947.6093,256.29755 950.1468,255.16505 950.1468,252.68255 C 950.1468,250.93005 949.1593,249.7938 946.6343,249.5888 L 942.4468,249.22755 C 937.5468,248.81255 934.6968,246.5938 934.6968,242.00005 C 934.6968,236.8863 939.0968,233.9963 944.5718,233.9963 C 948.4968,233.9963 951.8468,234.8238 954.2718,236.94005 L 950.9718,240.2963 C 949.3218,238.9013 946.9968,238.3813 944.5093,238.3813 C 941.3593,238.3813 939.7593,239.7763 939.7593,241.7413 C 939.7593,243.28755 940.5843,244.47755 943.3718,244.73505 L 947.5093,245.09505 C 952.4218,245.51005 955.3093,247.8313 955.3093,252.48255 C 955.3093,257.95505 950.6593,260.7938 944.4093,260.7938"
         id="path3667"
         style="fill:#ffffff;fill-opacity:1;fill-rule:nonzero;stroke:none" />
      <path
         d="M 972.7593,241.69005 C 971.9343,239.72255 970.0718,238.3813 967.5968,238.3813 C 965.1218,238.3813 963.2093,239.72255 962.3843,241.69005 C 961.8593,242.87755 961.7593,243.6513 961.7093,245.25005 L 973.4843,245.25005 C 973.4218,243.6513 973.2718,242.87755 972.7593,241.69005 z M 961.7093,248.91755 C 961.7093,253.40755 964.0843,256.24755 968.3718,256.24755 C 971.3093,256.24755 972.8593,255.42755 974.7218,253.56505 L 978.0718,256.71505 C 975.3843,259.4013 972.8593,260.7938 968.2718,260.7938 C 961.7093,260.7938 956.4968,257.33505 956.4968,247.3663 C 956.4968,238.90005 960.8843,233.99505 967.5968,233.99505 C 974.6218,233.99505 978.6968,239.15755 978.6968,246.5938 L 978.6968,248.91755 L 961.7093,248.91755"
         id="path3671"
         style="fill:#ffffff;fill-opacity:1;fill-rule:nonzero;stroke:none" />
      <path
         d="M 991.9218,260.4838 L 987.6343,260.4838 L 978.0218,234.3038 L 983.6093,234.3038 L 989.7968,252.73755 L 995.9343,234.3038 L 1001.5218,234.3038 L 991.9218,260.4838"
         id="path3675"
         style="fill:#ffffff;fill-opacity:1;fill-rule:nonzero;stroke:none" />
      <path
         d="M 1008.3968,260.4838 L 1003.1218,260.4838 L 1003.1218,234.3038 L 1008.3968,234.3038 L 1008.3968,260.4838 z M 1002.9718,229.1413 L 1002.9718,223.56755 L 1008.5593,223.56755 L 1008.5593,229.1413 L 1002.9718,229.1413"
         id="path3677"
         style="fill:#ffffff;fill-opacity:1;fill-rule:nonzero;stroke:none" />
      <path
         d="M 1026.9218,241.69005 C 1026.0968,239.72255 1024.2343,238.3813 1021.7593,238.3813 C 1019.2843,238.3813 1017.3718,239.72255 1016.5468,241.69005 C 1016.0218,242.87755 1015.9218,243.6513 1015.8718,245.25005 L 1027.6468,245.25005 C 1027.5968,243.6513 1027.4343,242.87755 1026.9218,241.69005 z M 1015.8718,248.91755 C 1015.8718,253.40755 1018.2468,256.24755 1022.5343,256.24755 C 1025.4718,256.24755 1027.0218,255.42755 1028.8843,253.56505 L 1032.2468,256.71505 C 1029.5593,259.4013 1027.0218,260.7938 1022.4343,260.7938 C 1015.8718,260.7938 1010.6593,257.33505 1010.6593,247.3663 C 1010.6593,238.90005 1015.0468,233.99505 1021.7593,233.99505 C 1028.7718,233.99505 1032.8593,239.15755 1032.8593,246.5938 L 1032.8593,248.91755 L 1015.8718,248.91755"
         id="path3681"
         style="fill:#ffffff;fill-opacity:1;fill-rule:nonzero;stroke:none" />
      <path
         d="M 1050.3593,240.4463 C 1049.1718,239.2613 1048.2468,238.69255 1046.4468,238.69255 C 1043.5968,238.69255 1041.2218,240.9663 1041.2218,244.57755 L 1041.2218,260.4838 L 1035.9593,260.4838 L 1035.9593,234.30255 L 1041.1218,234.30255 L 1041.1218,237.1413 C 1042.4593,235.2838 1045.1468,233.99505 1048.0968,233.99505 C 1050.6218,233.99505 1052.5343,234.66505 1054.3343,236.4713 L 1050.3593,240.4463"
         id="path3685"
         style="fill:#ffffff;fill-opacity:1;fill-rule:nonzero;stroke:none" />
      <path
         d="M 735.71055,241.34255 C 746.60555,241.34255 759.74305,238.8638 759.74305,228.7088 C 759.74305,221.51505 752.1543,218.82755 745.21305,218.82755 C 734.6193,218.82755 715.09555,224.5313 715.09555,244.77755 C 715.09555,254.9363 723.0893,260.7963 735.77055,260.7963 C 749.1818,260.7963 758.9268,252.35755 761.90555,241.0288 C 754.03055,254.1688 744.0218,258.26255 735.85555,258.26255 C 725.71305,258.26255 721.8468,250.97505 721.8468,244.73505 C 721.8468,226.87005 736.18305,220.86505 745.22555,220.86505 C 751.3293,220.86505 754.9043,224.6513 754.9043,228.80755 C 754.9043,240.2813 737.8168,239.9538 730.0168,239.9538 C 729.2193,239.9538 726.7593,239.97005 726.27805,239.9513 L 724.6318,241.60005 C 728.2043,242.08755 733.14555,243.03755 738.5068,245.6613 C 749.6593,251.10755 760.14805,265.48255 774.03805,265.48255 C 779.07055,265.48255 780.3868,263.9963 781.3318,262.6988 C 774.5318,266.8888 763.1393,259.6213 756.99555,253.99505 C 751.9368,249.37005 747.4668,244.12005 735.71055,241.34255"
         id="path3689"
         style="fill:#343333;fill-opacity:1;fill-rule:nonzero;stroke:none" />
    </g>
  </g>
</svg>
